<svg xmlns="http://www.w3.org/2000/svg" viewBox="0 0 1019.51 442.46"><defs><style>.cls-1,.cls-2{fill:none;stroke:#999;stroke-miterlimit:10;}.cls-1{stroke-width:1.47px;}.cls-2{stroke-width:1.61px;}</style></defs><title>mobile-gate</title><g id="圖層_2" data-name="圖層 2"><g id="pattern"><line class="cls-1" x1="34.69" y1="336.36" x2="34.69"/><line class="cls-1" x1="69.86" y1="336.36" x2="69.86"/><line class="cls-1" x1="105.02" y1="336.36" x2="105.02"/><line class="cls-1" x1="140.18" y1="336.36" x2="140.18"/><line class="cls-1" x1="175.34" y1="336.36" x2="175.34"/><line class="cls-1" x1="210.51" y1="336.36" x2="210.51"/><line class="cls-1" x1="245.67" y1="336.36" x2="245.67"/><line class="cls-1" x1="280.83" y1="336.36" x2="280.83"/><line class="cls-1" x1="315.99" y1="336.36" x2="315.99"/><line class="cls-1" x1="351.15" y1="336.36" x2="351.15"/><line class="cls-1" x1="386.32" y1="336.36" x2="386.32"/><line class="cls-1" x1="421.48" y1="336.36" x2="421.48"/><line class="cls-1" x1="456.64" y1="336.36" x2="456.64"/><line class="cls-1" x1="491.8" y1="336.36" x2="491.8"/><line class="cls-1" x1="526.97" y1="336.36" x2="526.97"/><line class="cls-1" x1="562.13" y1="336.36" x2="562.13"/><line class="cls-1" x1="597.29" y1="336.36" x2="597.29"/><line class="cls-1" x1="632.45" y1="336.36" x2="632.45"/><line class="cls-1" x1="667.62" y1="336.36" x2="667.62"/><line class="cls-1" x1="702.78" y1="336.36" x2="702.78"/><line class="cls-1" x1="737.94" y1="336.36" x2="737.94"/><line class="cls-1" x1="773.1" y1="336.36" x2="773.1"/><line class="cls-1" x1="808.26" y1="336.36" x2="808.26"/><line class="cls-1" x1="843.43" y1="336.36" x2="843.43"/><line class="cls-1" x1="878.59" y1="336.36" x2="878.59"/><line class="cls-1" x1="913.75" y1="336.36" x2="913.75"/><line class="cls-1" x1="948.91" y1="336.36" x2="948.91"/><line class="cls-1" x1="984.08" y1="336.36" x2="984.08"/><line class="cls-2" y1="122.56" x2="1019.51" y2="122.56"/><line class="cls-2" y1="73.54" x2="1019.51" y2="73.54"/><line class="cls-2" x1="0.13" y1="336.36" x2="1019.51" y2="336.36"/><line class="cls-2" x1="0.13" y1="441.65" x2="1019.51" y2="441.65"/></g></g></svg>