<svg xmlns="http://www.w3.org/2000/svg" viewBox="0 0 1387 432.66"><defs><style>.cls-1,.cls-2{fill:none;}.cls-1,.cls-2,.cls-3{stroke:#999;stroke-miterlimit:10;}.cls-1{stroke-width:2px;}.cls-2{stroke-width:2.19px;}.cls-3{fill:#f2f2f2;stroke-width:2.18px;}</style></defs><title>gates-with-door</title><g id="圖層_2" data-name="圖層 2"><g id="pattern"><line class="cls-1" x1="47.2" y1="354.4" x2="47.2"/><line class="cls-1" x1="95.04" y1="354.4" x2="95.04"/><line class="cls-1" x1="142.87" y1="354.4" x2="142.87"/><line class="cls-1" x1="190.71" y1="354.4" x2="190.71"/><line class="cls-1" x1="238.55" y1="354.4" x2="238.55"/><line class="cls-1" x1="286.38" y1="354.4" x2="286.38"/><line class="cls-1" x1="334.22" y1="354.4" x2="334.22"/><line class="cls-1" x1="382.06" y1="354.4" x2="382.06"/><line class="cls-1" x1="429.9" y1="354.4" x2="429.9"/><line class="cls-1" x1="477.73" y1="354.4" x2="477.73"/><line class="cls-1" x1="525.57" y1="354.4" x2="525.57"/><line class="cls-1" x1="573.41" y1="354.4" x2="573.41"/><line class="cls-1" x1="621.24" y1="354.4" x2="621.24"/><line class="cls-1" x1="669.08" y1="354.4" x2="669.08"/><line class="cls-1" x1="716.92" y1="354.4" x2="716.92"/><line class="cls-1" x1="764.76" y1="354.4" x2="764.76"/><line class="cls-1" x1="812.59" y1="354.4" x2="812.59"/><line class="cls-1" x1="860.43" y1="354.4" x2="860.43"/><line class="cls-1" x1="908.27" y1="354.4" x2="908.27"/><line class="cls-1" x1="956.1" y1="354.4" x2="956.1"/><line class="cls-1" x1="1003.94" y1="354.4" x2="1003.94"/><line class="cls-1" x1="1051.78" y1="354.4" x2="1051.78"/><line class="cls-1" x1="1099.62" y1="354.4" x2="1099.62"/><line class="cls-1" x1="1147.45" y1="354.4" x2="1147.45"/><line class="cls-1" x1="1195.29" y1="354.4" x2="1195.29"/><line class="cls-1" x1="1243.13" y1="354.4" x2="1243.13"/><line class="cls-1" x1="1290.96" y1="354.4" x2="1290.96"/><line class="cls-1" x1="1338.8" y1="354.4" x2="1338.8"/><line class="cls-2" y1="91.88" x2="1387" y2="91.88"/><line class="cls-2" y1="35.11" x2="1387" y2="35.11"/><line class="cls-2" x1="0.17" y1="354.4" x2="1387" y2="354.4"/><line class="cls-2" x1="0.17" y1="431.57" x2="1387" y2="431.57"/></g><g id="contents"><rect class="cls-3" x="573.72" y="130.54" width="238.56" height="223.86"/></g></g></svg>