<svg xmlns="http://www.w3.org/2000/svg" viewBox="0 0 48.24 48.24"><defs><style>.cls-1{fill:#aa8258;}.cls-2{fill:#f2f2f2;}</style></defs><title>icon-mediumn</title><g id="圖層_2" data-name="圖層 2"><g id="contents"><circle class="cls-1" cx="24.12" cy="24.12" r="24.12"/><path class="cls-2" d="M37.77,12.87v.58c-.67.61-1.33,1.22-2,1.81a1.3,1.3,0,0,0-.47,1.07c0,5.11,0,10.22,0,15.33a1.67,1.67,0,0,0,.43,1c.64.7,1.34,1.35,2,2V35a2.52,2.52,0,0,1-.4.06H27.17a1.49,1.49,0,0,1-.41-.13c.06-.17.06-.39.18-.51.57-.59,1.15-1.16,1.75-1.71a1.57,1.57,0,0,0,.55-1.27c0-3.83,0-7.66,0-11.49q0-.3,0-.61a1.17,1.17,0,0,0-.32.49L23.15,34.5c-.11.27-.14.57-.6.57s-.56-.21-.7-.53q-3.34-7.31-6.69-14.6c-.09-.19-.18-.37-.27-.55l-.11,0q0,.3,0,.61c0,3.25,0,6.49,0,9.74a2,2,0,0,0,.49,1.38q1.31,1.56,2.59,3.15a3.58,3.58,0,0,1,.34.76H9.77v-.58s.11,0,.15-.07c1-1.17,1.94-2.33,2.88-3.52a1.49,1.49,0,0,0,.29-.86q0-6.3,0-12.59a1.68,1.68,0,0,0-.36-.94c-.75-1-1.56-1.89-2.33-2.84a3.92,3.92,0,0,1-.36-.77h.71c2.31,0,4.63,0,6.94,0a.75.75,0,0,1,.82.52Q21.34,19.7,24.23,26c.08.18.17.35.3.59l.2-.48q2.56-6.37,5.11-12.75a.64.64,0,0,1,.71-.49C33,12.88,35.36,12.87,37.77,12.87Z"/></g></g></svg>