<svg xmlns="http://www.w3.org/2000/svg" viewBox="0 0 48.24 48.24"><defs><style>.cls-1{fill:#aa8258;}</style></defs><title>icon-instagram</title><g id="圖層_2" data-name="圖層 2"><g id="contents"><path class="cls-1" d="M24.12,19.07a5.06,5.06,0,1,0,5.07,5.11A5,5,0,0,0,24.12,19.07Z"/><path class="cls-1" d="M30.57,11.28q-6.43,0-12.86,0a6.33,6.33,0,0,0-6.44,6.44q0,6.43,0,12.86A6.34,6.34,0,0,0,17.73,37q6.38,0,12.76,0A6.35,6.35,0,0,0,37,30.5c0-2.11,0-4.22,0-6.33s0-4.29,0-6.43A6.35,6.35,0,0,0,30.57,11.28Zm-6.4,21.15a8.29,8.29,0,1,1,8.25-8.33A8.25,8.25,0,0,1,24.16,32.43Zm8.27-14.56a2,2,0,1,1,2-2A2,2,0,0,1,32.43,17.87Z"/><path class="cls-1" d="M24.12,0A24.12,24.12,0,1,0,48.24,24.12,24.12,24.12,0,0,0,24.12,0ZM40.18,31A9.51,9.51,0,0,1,31,40.2c-2.31.06-12.38.1-15.05-.22a9.21,9.21,0,0,1-7.83-8.89q-.14-6.93,0-13.86a9.46,9.46,0,0,1,9.17-9.15q6.88-.13,13.76,0a9.46,9.46,0,0,1,9.17,9.15Q40.31,24.11,40.18,31Z"/></g></g></svg>