<svg xmlns="http://www.w3.org/2000/svg" viewBox="0 0 48.24 48.24"><defs><style>.cls-1{fill:#aa8258;}</style></defs><title>icon-facebook</title><g id="圖層_2" data-name="圖層 2"><g id="contents"><path class="cls-1" d="M24.12,0a24.12,24.12,0,1,0,0,48.24q.63,0,1.25,0V29.88c-1,0-1.93,0-2.84,0-1.08.06-1.48-.45-1.46-1.47s0-2.1,0-3.14.47-1.57,1.57-1.5c.9.05,1.8,0,2.84,0,0-1.4,0-2.62,0-3.85,0-5.4,2.73-8.12,8.11-8.12,4.45,0,3.83-.65,3.87,4.11,0,.9-.38,1.35-1.32,1.33a20.58,20.58,0,0,0-2.46,0c-1,.09-1.88.49-2,1.55-.18,1.6-.17,3.22-.24,4.76a3.56,3.56,0,0,0,.53.14l3.7,0c1.94,0,2,.06,1.81,2-.08.91-.22,1.81-.3,2.72a1.26,1.26,0,0,1-1.5,1.34c-1.35-.05-2.71,0-4.1,0V47.07A24.12,24.12,0,0,0,24.12,0Z"/></g></g></svg>