<svg xmlns="http://www.w3.org/2000/svg" viewBox="0 0 412.6 222.66"><defs><style>.cls-1{fill:#4d4d4d;}.cls-2{fill:none;}</style></defs><title>logo-datemyself</title><g id="圖層_2" data-name="圖層 2"><g id="contents"><path class="cls-1" d="M73.35,132.46c.59-.75,1.09-1.55,1.62-2.36,1.5-2.36,3-4.75,4.54-7.06a8.89,8.89,0,0,1,3-3c7.23-3.48,10.86-10.46,15.32-16.37,4.92-6.54,8.29-14.23,11.18-22a6,6,0,0,0,.09-3.68c-1.17-3.56-2.49-7.09-4-10.53-1.21-2.8-3.14-5.34-4-8.22A25.42,25.42,0,0,0,92.35,46.6a62,62,0,0,1-4.51-4.44c-3.5-3.4-7.49-3.75-11.88-2a51.54,51.54,0,0,1-8.58,3.11c-4.74,1-7.94,3.79-10.68,7.5a57.1,57.1,0,0,1-4.32,4.66c-.29.39.64,3.16.74,3.69l.8,4,1.57,7.8,3.16,15.72Q61.8,102.35,65,118l1.78,8.87c.34,1.71,1,3.36,1.3,5.09.24,1.34,0,4.82-2.2,2.69a4.57,4.57,0,0,1-.87-2.36c-1.64-7.2-3.16-14.43-4.77-21.64-2.27-10.19-4.66-20.35-6.82-30.55-1.23-5.81-2.17-11.67-3.13-17.53-.77-4.64-6-8.92-6.43-10.47-.55-2.07,2.61-1.92,4-1.81.65,0,3.59,2.11,3.42,2.41,1-.4,2.14-2.47,3-3.55C57,45.8,60.13,43,64.51,41.67c3.43-1,6.68-2.69,10-4,5.7-2.27,11.07-2.71,15.78,2.33,2.83,3,6.19,5.57,8.82,8.74,2,2.44,3.38,5.46,4.88,8.31a104.82,104.82,0,0,1,4.66,9.7A95.81,95.81,0,0,1,112.38,78c.64,2.46,0,4.82-1.31,7.22-2.81,5.19-4.94,10.75-7.78,15.92-2,3.59-4.67,6.79-7.06,10.16a28.29,28.29,0,0,0-2.52,3.46,13.39,13.39,0,0,1-5.55,5.6,27.25,27.25,0,0,0-12.51,16.93c-.43,1.58-.21,3.77-3,4.31-1.62.32-2-4.76-1.83-5.66.18-1.13,1.05-1.81,1.79-2.59.26-.27.5-.55.72-.83"/><path class="cls-1" d="M161,202.2h.08c.42-.06.56-.94.67-1.25a8.24,8.24,0,0,0,.35-1.35c1.34-7.88,2.63-15.78,3.95-23.67a43.55,43.55,0,0,1,4.45-13.58c1.38-2.58,2.79-5.16,4.33-7.64,3.17-5.1,3.75-10.57,3.11-16.45-.56-5.14-.49-10.36-.7-15.54,0-.7.3-1.79-.12-2.11-1.71-.37-2.24,1.75-2.25,2.74,0,5,0,10.06.38,15.08.24,3.54-1.45,6.61-3.92,6.8-.9.12-1.44-3.12-1.84-4.73-.7-2.85-.92-5.83-1.78-8.62-.66-2.17-2-6.71-3-6.19-.68,0,3.18,20.9,5.52,21.6,1.65.67,3.09-.13,4.58-.32.58,1.68.06,2.57-.72,4-2.73,4.86-5.82,9.66-7.61,14.88a87,87,0,0,0-5.15,25.48,30.5,30.5,0,0,1-.4,3.69c-.2,1.38-.45,2.75-.65,4.13,0,.33-.11.65-.15,1a1.59,1.59,0,0,0,0,.7,2.72,2.72,0,0,0,.34.6c.12.2.29.76.57.82"/><path class="cls-1" d="M131.11,133.79c2.43,1.41,3.26,3.06,3,5.73-.42,3.89,2.72,11.18,3.41,11.2,1,0,1.38-1.52,1.3-2-.2-1.15-1-2.2-1.18-3.34-.4-2.1-1.82-4.27.21-6.35,1.66-1.71,3.17-3.57,4.87-5.23.71-.69,1.57-2.23,2.79-1.69s1.89,4.68,2.84,6.85,1.93,4.4,3,6.54c1,1.94,1.9,6.63,3.84,6.05.8-1-.14-3.06-.53-4.23-.63-1.89-1.59-3.66-2.36-5.5-1.52-3.67-3-7.36-4.5-11-.27-.67.09-1.56-.85-2.13-2-.18-7.24,5-10.59,9.1.06-5.11-3.84-7-5.56-7-2.91,0-3.52,3.52-3.77,5.77s-.3,4.24-.57,6.35c-.23,1.83-1.29,3.94-1.12,5.76a107.89,107.89,0,0,0-1.76-12.16c-.15-.58-.49-2.79-1.35-2.31s-.42,4.75-.36,5.57a138.63,138.63,0,0,0,2.29,15.07c.12.64-.06,1.35,1,1.14,1.3-.17,1.34-.93,1.44-1.49.52-3,.85-6,1.25-9.06,0,0,2.62-12,3.27-11.57"/><path class="cls-1" d="M278.4,65.57c1.48-.8,3.73.38,4.93,1.43s2.79,4.14,1.87,4.33c-1.66-.57-4.64-3.19-5.59-3.05-.79-.13-.9,2.92-1.28,4-.51,1.49-1.08,3-1.6,4.45a31,31,0,0,0-2,9.26,17.73,17.73,0,0,0,.65,5.3c.51,1.85.71,3.78,1.11,6,7.84-2.57,15.11-1.07,22.38-.1,2.45.33,4.15,1.78,3.65,3.43-.83.58-2.52-.16-3.56-.5a38.07,38.07,0,0,0-14.58-1.82,50.93,50.93,0,0,0-7.09,1.54c.54-.12,5.54,20.08,6,22,.36,1.6.85,3.19,1.09,4.82.13.94-.31,1.39-1.18,1S282,126,281.75,125q-2.22-9.34-4.57-18.66c-.45-1.8-1.15-3.54-1.75-5.38,0,0-3,1.29-3.53.56-1.15-1.45,2.05-3.1,2.61-4-.45-2.14-.93-4.59-1.48-7a20.88,20.88,0,0,1,.71-11.83c.83-2.33,1.6-4.69,2.36-7.05.54-1.71.53-3.69,1.45-5.26a2.18,2.18,0,0,1,.85-.84"/><path class="cls-1" d="M152.37,108.8a2,2,0,0,1-.63-.79c-.64-1.38-1-2.93-1.51-4.36-1.07-2.93-2.11-5.87-3.4-8.71-2.07-4.53-4.73-8.8-7.05-13-.28,2.75-.06,5.74-1,8.27a4.78,4.78,0,0,1-2.15,2.12c-.66.41-1.51,1.17-2.32,1.2-1.48.06-2.18-2.46-2.76-3.46s-1-1.8-1.48-2.73a43,43,0,0,1-2.56-7.11c-.38-1.37-.71-2.74-1-4.12a14.12,14.12,0,0,1,1.34-9.4A10.08,10.08,0,0,1,131,62.34a9.23,9.23,0,0,1,2.52-.84,16.09,16.09,0,0,0,2.57-1.28c1.38-.69,2.74,2.85,3,3.81A86.54,86.54,0,0,1,141.3,75.6a32.8,32.8,0,0,0,6.36,15.62,27.3,27.3,0,0,1,3.7,8.43c.43,1.48.83,3,1.29,4.45.35,1.1,1.62,3.08,1.06,4.19-.39.78-.91.81-1.34.51m-17-18.22a1,1,0,0,0,.71-.35,4.23,4.23,0,0,0,1.17-2.57c0-5.21-.06-10.42-.34-15.62a13.11,13.11,0,0,0-1.43-4.54c-.4-.88-1-2.32-1.85-2.82-1.7-1-3.62,2.34-4.19,3.54a11.14,11.14,0,0,0-1,5.24,26.53,26.53,0,0,0,4.19,14c.48.71,1.59,3.18,2.75,3.17"/><path class="cls-1" d="M205.77,119c.1.72.37,1.42.47,2.15a7.08,7.08,0,0,1,0,2.13,15.16,15.16,0,0,1-1.62,4.23c-.37.73-.76,1.45-1.13,2.18-3,6-7.78,4-10.73.2-1.58-2-1.72-5.22-2.31-7.94a1.78,1.78,0,0,1,1.29-1.7c.51,0,.73.31.8.81a9.3,9.3,0,0,0,4.49,9.13c1.76.93,2.92.66,4.11-1,4-5.57,3.26-11.49,1.12-17.42-.3-.83-1.51-1.48-2.44-1.92a4.8,4.8,0,0,1-2.72-3.66c-.89-3.93-2.39-7.74-2.57-11.81-.06-1.43-.35-3.07.93-4.07s3.8-1.25,5.48-1a7,7,0,0,1,3,1.23A2.61,2.61,0,0,1,205,92.73c-.17,1.4-2,.2-2.57-.09a8.36,8.36,0,0,0-1.48-.64,6.17,6.17,0,0,0-3-.13c-1.17.33-1.21,1.31-1.21,2.35s0,1.92.09,2.86a30.24,30.24,0,0,0,1.16,5.6c.31,1,.65,2.08,1,3.11s1.5,1.78,2.4,2.53c2.09,1.75,4.08,4.32,4.35,7.13a21.33,21.33,0,0,1-.06,2.83,4.07,4.07,0,0,0,0,.69"/><path class="cls-1" d="M207.91,56.69a7.62,7.62,0,0,0,.86-2.48c.31-1.31.68-2.62,1-3.93a7.09,7.09,0,0,1,.39-1.64c.5-.92,1.23,0,1.52.56a5.68,5.68,0,0,1-.25,4.91,12.1,12.1,0,0,1-2.73,4.09,6.45,6.45,0,0,1-1.91,1.24C200.31,61.78,196,60.9,193,55.32c-3.67-6.73-3.88-13.72-2.53-20.87.62-3.29,7.78-6.81,10.93-5.67a3.28,3.28,0,0,1,1.58,2.3c.18,1.28.25,2.57.32,3.86a5.56,5.56,0,0,1-1.84,4.87,20.47,20.47,0,0,1-4.43,3.1,7.58,7.58,0,0,1-2.58.68,8.52,8.52,0,0,1-1.86,0,15.77,15.77,0,0,0,1.75,9.08c1,1.84,1.88,4.12,4,4.92,2.35.9,7.77,1.58,9.54-.78l.08-.12M192.45,40.75c.74.4,2.75-.38,3.24-.52A8.16,8.16,0,0,0,198.3,39,5,5,0,0,0,200,33.68c-.16-.71-.14-1.64-1-1.86a5.12,5.12,0,0,0-2.31.42c-3,.71-4,3.48-4.58,6.2-.12.54-.32,2,.34,2.31"/><path class="cls-1" d="M235.38,110.48c.06,1-1.6,2.32-2.26,2.84a19.57,19.57,0,0,1-3.33,2.07c-6.4,3.23-6.4,2.24-4.8,9.55a13.46,13.46,0,0,0,.54,1.72c.17.46.28,1.07.71,1.37s1.35,0,1.95-.13,1.38-.27,2.06-.42c1-.2,1.9-.45,2.85-.63a2.08,2.08,0,0,0,1.3-.53c.4-.5.18-1.24.22-1.82.09-1.37.14-2.74.21-4.11,0-.78,0-1.55,0-2.33a13.14,13.14,0,0,1,.09-1.41c.07-.47.52-.93.91-.52a4.7,4.7,0,0,1,.66,1.81,7.2,7.2,0,0,1,.35,2.3,37.64,37.64,0,0,1-1.19,7,2.55,2.55,0,0,1-2.23,1.78c-1.5.29-3,.47-4.54.67-.78.1-1.56.19-2.33.3a2.24,2.24,0,0,1-2-.3c-.73-.69-.84-1.88-1.12-2.79a24.67,24.67,0,0,1-1-3.82,28.43,28.43,0,0,1,.15-8.67,44,44,0,0,1,1.11-4.84,28.52,28.52,0,0,1,2-4.79,1.65,1.65,0,0,1,2.69-.66c1.35,1.11,2.71,2.18,4,3.32.65.57,1.28,1.14,1.89,1.74.32.32.87.63,1,1.09a.74.74,0,0,1,0,.16m-7.94-3.1c-1,0-1.79,2.14-2,2.85a10,10,0,0,0-.36,2.49c0,.47-.26,1.39.14,1.76s1.72-.25,2.27-.4a9.61,9.61,0,0,0,1.55-.45c1.06-.47,4.29-2,2.43-3.29-.63-.44-1.2-1-1.8-1.45a13.13,13.13,0,0,0-1.8-1.4.87.87,0,0,0-.44-.11"/><path class="cls-1" d="M247.77,81c.89.42,1.7,3.56,1.94,4a27.65,27.65,0,0,1,2.38,4.68,60.51,60.51,0,0,1,3.1,12.77c.7,6.62.68,13.33.93,20a4.12,4.12,0,0,1-.42,2c-.22.43-.64,1-1.19,1s-.63-.71-.68-1.18c-.12-1.07-.05-2.15-.15-3.22q-.2-2.08-.38-4.16c0-.38-.07-.76-.1-1.14-.06-.94-.1-1.88-.11-2.82-.09-5.76-.17-11.5-1.54-17.14a13.59,13.59,0,0,0-1.28-3.77,26.16,26.16,0,0,1-2.36-5.34c-.38-1.17-1.63-4.16-.8-5.35.22-.31.45-.37.67-.27"/><path class="cls-1" d="M308.46,126h.08c1.14.21,1.14,3.17-.35,2.35-.86-.47-.91-2.5.27-2.37"/><path class="cls-1" d="M181,66.3c1.67,6.36-.91,9.87-6.27,9.61-1.44-.07-2.87-.31-4.87-.53-4.14-5.51-6-12.67-9.65-19.15-3.46,2.74-6.88,5.22-11.82,3.81a57.27,57.27,0,0,0,5.68-3c1.9-1.29,3.57-2.91,5.56-4.57-1.6-2.2.3-5.63-3.46-7,1.41-1.68-.49-5.38,4.14-5.21l2.32,10.39c3.08-.17,6-.84,8.75-.34s5,2.15,7.43,3.27c-.12,2-1.29,2.22-2.46,2a8,8,0,0,1-2.81-1.16,8.18,8.18,0,0,0-9.11-.07c-.06.35-.31.84-.17,1.17,2.13,5.08,4.1,10.25,6.55,15.17,1.64,3.28,6,2.93,7.87-.34.64-1.13,1.29-2.25,2.3-4"/><path class="cls-1" d="M293.14,158.62H286.4v-1h3.05a21.2,21.2,0,0,0-1.65-3.39l.49-.45a15.12,15.12,0,0,1,3,3.1l-1.2.73h3Zm-.53,5.81H287v-.93h5.65ZM287,160.55h5.65v1H287ZM299.06,167v5.5c0,2-1.67,3.07-4.72.8l.27-.75c2.54.73,2.71.34,2.71-.54v-3.07a19.4,19.4,0,0,1-4.92,3.6l-.2-.36V174h-1.69v-1.31h-1.69v1.71h-1.69v-7.85h5.08v5.18a25.29,25.29,0,0,0,5.12-4.72v-.84A20.52,20.52,0,0,1,293,168l-.6-1.94c.34,0,.67-.09,1-.11v-9.19h1.89a22.6,22.6,0,0,0,.56-3l2,.51a13.1,13.1,0,0,1-1.56,2.47h2.78v7.65a11.63,11.63,0,0,0,.6-1.15l.69.49c-.07-.67-.16-1.31-.25-2l.71-.11a22,22,0,0,1,1.42,5.65l-1.71.25c0-.84,0-1.72-.09-2.58a20.78,20.78,0,0,1-1.38,1.94m-8.54.56h-1.69v4.12h1.69Zm4.56-7.95h2.25v-2h-2.25Zm0,2.94h2.25v-2h-2.25Zm2.25,2.61v-1.67h-2.25v2.24c.73-.16,1.45-.34,2.25-.58m8.88-5.72v1h-1.56v12c0,2.58-2.34,3-5,.73l.29-.73c2.52.8,2.78.62,2.78-.56V160.42h-3.29v-1h3.29v-5.34h1.91v5.34Z"/><path class="cls-1" d="M319.84,158.62H313.1v-1h3a21.08,21.08,0,0,0-1.65-3.39l.49-.45a15.09,15.09,0,0,1,3,3.1l-1.2.73h3Zm-.53,5.81h-5.65v-.93h5.65Zm-5.63-3.87h5.65v1h-5.65ZM325.76,167v5.5c0,2-1.67,3.07-4.72.8l.27-.75c2.54.73,2.71.34,2.71-.54v-3.07a19.45,19.45,0,0,1-4.92,3.6l-.2-.36V174h-1.69v-1.31h-1.69v1.71h-1.69v-7.85h5.07v5.18A25.33,25.33,0,0,0,324,167v-.84a20.52,20.52,0,0,1-4.32,1.89l-.6-1.94c.34,0,.67-.09,1-.11v-9.19H322a22.15,22.15,0,0,0,.56-3l2,.51a13.09,13.09,0,0,1-1.56,2.47h2.78v7.65a11.48,11.48,0,0,0,.6-1.15l.69.49c-.07-.67-.16-1.31-.25-2l.71-.11a22.06,22.06,0,0,1,1.42,5.65l-1.71.25c0-.84,0-1.72-.09-2.58a20.8,20.8,0,0,1-1.38,1.94m-8.54.56h-1.69v4.12h1.69Zm4.56-7.95H324v-2h-2.25Zm0,2.94H324v-2h-2.25Zm2.25,2.61v-1.67h-2.25v2.24c.73-.16,1.45-.34,2.25-.58m8.88-5.72v1h-1.56v12c0,2.58-2.34,3-5,.73l.29-.73c2.52.8,2.78.62,2.78-.56V160.42h-3.29v-1h3.29v-5.34h1.92v5.34Z"/><path class="cls-1" d="M344.57,159.21v15.47h-1.91V162.35a16.34,16.34,0,0,1-2.63,2.79l-.54-.6a26.44,26.44,0,0,0,4.74-10.86l2.18.65a29.19,29.19,0,0,1-1.85,4.89m9-.4v13.55c0,2.2-1.76,3.17-6,.94l.2-.76c3.59.62,3.78.36,3.78-.91V158.82h-2.69a24,24,0,0,1-2.94,4.56l-.69-.47a22,22,0,0,0,2.87-9l2.27.49a19.5,19.5,0,0,1-1.07,3.39h7.5l.64-.47,2.11,1.2a16.74,16.74,0,0,1-3.34,3.83l-.65-.54a16,16,0,0,0,1.29-3Zm-3.32,5.05a22.78,22.78,0,0,1-4.29,8l-.64-.49a25.42,25.42,0,0,0,2.83-8.14Zm9.48,6.7-2.18,1a62.81,62.81,0,0,0-2.78-8l.67-.42a35,35,0,0,1,4.3,7.45"/><path class="cls-1" d="M374.36,168.1a4.4,4.4,0,0,0,2.83-3.56,2.31,2.31,0,0,1-.76.11,1.68,1.68,0,0,1-1.78-1.78,1.7,1.7,0,0,1,1.8-1.78c1.36,0,2.25.82,2.25,2.49a5.11,5.11,0,0,1-3.87,5.14Z"/><path class="cls-1" d="M184.62,192.2h2.47v1h-2.47v4.21c.67-.27,1.34-.53,2-.82l.35.71a26.54,26.54,0,0,1-2.34,1.54V206c0,1.94-1.71,2.81-4.94.65l.22-.73c2.34.56,2.8.43,2.8-.62V199.9c-.8.42-1.63.8-2.43,1.13l-.91-2.09c1.18-.24,2.27-.54,3.34-.87V193.2h-3.05v-1h3.05v-4.83h1.91Zm12.19,15.09a55.05,55.05,0,0,1-6,0c-2.72-.16-3.41-.31-3.41-3.27V189h10.28v10.51h-2v-1.25h-6.36v5.61c0,1.31.27,1.49,1.62,1.56a52.48,52.48,0,0,0,5.3,0c1.51-.09,1.62-.69,1.49-4h.8c1.36,4.5.67,5.75-1.76,5.88m-7.45-10h2.25V190h-2.25Zm4.12,0h2.25V190h-2.25Z"/><path class="cls-1" d="M213.26,189.1v15.67h-1.92V203h-2.4v2.29H207V189.1Zm-1.92,1h-2.4v5.14h2.4Zm0,6.14h-2.4V202h2.4Zm9.73,8.92V199.7H213.7v-1h7.37v-2.47h2v2.47H226v1H223.1v6.16c0,2-1.76,3.25-5.5.51l.26-.75c2.85.86,3.21.67,3.21-.45m-7-10.46h4.43v-3.12h-4v-1h4v-3.14h2v3.14h4.25v1h-4.25v3.12h5.16v1H214.06Zm.93,5.94.6-.51a15.65,15.65,0,0,1,3.47,3.32l-1.74,1.23a36,36,0,0,0-2.34-4"/><path class="cls-1" d="M234.24,188.26h7.57V195H236.2v13h-2Zm5.65,1H236.2v1.85h3.69Zm0,2.85H236.2V194h3.69Zm-1.2,4.78h8.23v8.57h-1.85v-1.31h-4.52v1.65h-1.87Zm6.37,1h-4.5v2h4.5Zm0,3h-4.5v2.24h4.5Zm1.34,5.09c2.8.58,3.16.38,3.16-.82V195h-5.79v-6.77h7.74v17.61c0,2.26-2,2.87-5.34.89Zm3.16-16.73h-3.87v1.85h3.87Zm0,2.85h-3.87V194h3.87Z"/><path class="cls-1" d="M267.11,194.78a31.9,31.9,0,0,1-6.17,3.07l-1-2.07c.58-.09,1.2-.2,1.85-.36v-6.34l1.8.43a12.54,12.54,0,0,0,3.83-2.29l1.69,1.62a17.1,17.1,0,0,1-5.37,1.61v4.47c1-.31,2.09-.67,3-1-.24-.78-.53-1.56-.82-2.27l.69-.42a15.84,15.84,0,0,1,2.89,4.52l-1.91.89c-.16-.58-.33-1.18-.53-1.81m-4.85,3.34h14.55v9.79h-2v-1.2H264.22v1.22h-2Zm2,3.63h4.38v-2.63h-4.38Zm0,4h4.38v-3h-4.38Zm13.58-17a40.75,40.75,0,0,1-.54,7c-.38,1.63-2.56,2.31-5,.18l.33-.73c2.38.69,2.69.49,2.87-.58a33.77,33.77,0,0,0,.31-4.85h-2c-.4,4.1-2,6.79-5.45,8.21l-.42-.69c2.76-1.67,3.63-3.72,3.85-7.52h-2.09v-1Zm-7.32,13h4.38v-2.63h-4.38Zm0,4h4.38v-3h-4.38Z"/><path class="cls-1" d="M289,201.65a18.41,18.41,0,0,1-.8,6.12l-2-.87a14.15,14.15,0,0,0,2.09-5.34Zm-1-3.21a22.49,22.49,0,0,0,3.14-4.23,32.42,32.42,0,0,1-4,.91l-.4-1.94c.44,0,.89.07,1.34.09a27.13,27.13,0,0,0,2-6l2,.67a26.82,26.82,0,0,1-3.11,5.41c.87,0,1.71,0,2.62-.09a25.72,25.72,0,0,0,1.23-2.71l1.91.88a23.16,23.16,0,0,1-5.68,7c1.14-.06,2.29-.2,3.41-.35-.2-.58-.4-1.16-.62-1.65l.56-.34a17.46,17.46,0,0,1,2.51,3.69l-1.71.78c-.11-.49-.29-1.09-.47-1.7a30.9,30.9,0,0,1-5.74,1.63l-.51-2c.44,0,.93,0,1.45,0m2.63,2.89a36.82,36.82,0,0,1,1.54,5.08l-2,.38c0-1.4-.07-3.51-.2-5.32Zm2-.62a26.88,26.88,0,0,1,2.38,4.36l-1.8.73c-.33-1.47-.82-3.4-1.22-4.82Zm14.07-6.23-1.6,2c-2.27-1.45-3.81-4-5.05-6.88a16.05,16.05,0,0,1-6.36,7.08l-.44-.62c1.87-1.53,4-4,5.36-9l2.16.69c-.09.31-.2.62-.31.91a14,14,0,0,0,6.25,5.77m-11.24,4.65h9.1v8.7h-1.91v-1.71l-5.27,0V208H295.5Zm7.94-3H296v-1h7.41Zm-6,9h5.27v-5h-5.27Z"/><path class="cls-1" d="M330.33,191.1V208h-2v-1.85H317.64V208h-2V191.1h4.94a32.84,32.84,0,0,0,1.34-4.12l2.71,1a21.36,21.36,0,0,1-2.69,3.12Zm-12.68,4.5h10.64v-3.49H317.64Zm0,4.65h10.64V196.6H317.64Zm10.64,1H317.64v3.88h10.64Z"/><path class="cls-1" d="M354.54,195.6v-5.21H340.9v-1.22h15.69v9.53h-2v-2H344.32v6.74c0,1.54.16,1.83,1.6,1.92a96.56,96.56,0,0,0,9.75-.06c1.69-.12,1.87-.4,1.85-4.67h.84c1.29,4.89,1.2,6.43-2.11,6.63-2.85.18-7.48.25-10.13.09-3.63-.23-3.89-.67-3.89-4.52V195.6Z"/><path class="cls-1" d="M373.56,197.71a2.94,2.94,0,0,1,.82-2.11,2.69,2.69,0,0,1,2-.89,3,3,0,0,1,0,6,3,3,0,0,1-2.85-3m4.61,0a1.8,1.8,0,0,0-1.76-1.85,1.86,1.86,0,0,0-1.22,3.16,1.6,1.6,0,0,0,1.22.53,1.8,1.8,0,0,0,1.76-1.85"/><rect class="cls-2" width="412.6" height="222.66"/></g></g></svg>