<svg xmlns="http://www.w3.org/2000/svg" viewBox="0 0 203.41 256.95"><defs><style>.cls-1{fill:#aa8258;}</style></defs><title>logo-footer</title><g id="圖層_2" data-name="圖層 2"><g id="contents"><path class="cls-1" d="M130.82,109.73q-3.11-2.57-4.1-2.57a13.92,13.92,0,0,0-2.61,2.43,1,1,0,0,1-.36.36A3.78,3.78,0,0,1,121,111q-2,.18-14,.18h-5.85q-17.83,0-20-.14a17.84,17.84,0,0,1-5.76-1.76q-3.87-1.71-4.05-1.35a2.46,2.46,0,0,0,0,1q.72,7.48.72,18.64,0,10.63-.18,12.79-.36,2.79.54,3.42,1.17.81,4-.27t2.79-2.34A2.32,2.32,0,0,1,80.53,139q.63-.36,21-.36t21,.36a2,2,0,0,1,1,2.34q-.54,3.42,5.22,1.17,2-.81,2.3-1.49a9.59,9.59,0,0,0,.14-3.47q-1.35-21.79,1.26-23.14,1.44-1,1.44-1.35Q133.93,112.3,130.82,109.73Zm-33,20.85q0,4.32-1.08,5-.63.45-8.19.45h-.9Q81,136,80,135.26t-.81-4v-1.08q.09-3,.9-3.6t7.47-.63h2q3,0,4.1,0t2.3.18q1.17.14,1.35.68c.12.36.24.75.36,1.17a7.9,7.9,0,0,1,.18,2Zm.09-11.8q-.09,3.51-1.17,4.14-.63.54-8.19.54t-8.19-.54q-1.17-.72-1.17-4.32t1.17-4.41q.72-.45,8.42-.41t8.24.59Q98,115.27,97.91,118.78Zm7.83-4.68q.72-.36,8.6-.32t8.42.5q1.17.72,1.17,4.32t-1.17,4.32q-.63.45-8.51.5t-8.51-.41q-1.17-.72-1.17-4.5T105.74,114.1Zm17,21.43q-.63.45-8.51.5t-8.51-.41q-1.26-.72-1.17-4.68t1.35-4.59q.72-.45,8.19-.45t8.19.45q1.44.63,1.62,4.46T122.76,135.53Z"/><path class="cls-1" d="M63.33,91.68q3.15,1.53,6.17-1.35a12.93,12.93,0,0,0,3.65-8.1q.27-2.43,1.26-3t27.69-.32q26.79.14,27.24.59,1.08,1.08-.81,6.12-.9,2.34.18,2.25,1.53-.09,7.92-5.4a11.81,11.81,0,0,1,3.87-2.34q2.07-.36,1.08-1.8a16,16,0,0,0-2.52-3Q136,72.23,135.19,72t-2.7,1.8a8,8,0,0,1-2.75,2.3,41.71,41.71,0,0,1-6.08.23q-6.39,0-6.84-.72t3.6-4.32q1-.81,2.79-2.52t2-1.8a8,8,0,0,1,2.61-1.89q2.52-.72-.72-2.25l-2.43-1.08q-5.22-2.16-5.85-1.89a3.21,3.21,0,0,0-.63,1.44,51,51,0,0,1-3.11,8.6q-2.21,4.91-3.29,5.81a6.33,6.33,0,0,1-2.84.59,7.34,7.34,0,0,1-3-.23q-1.35-.72-1.26-6t1.44-6.39q1.62-1.26-1.26-2.43a37.73,37.73,0,0,0-4.77-1.44Q97,59,96.83,59.35a1.78,1.78,0,0,0,0,.81,104.41,104.41,0,0,1,.72,10.45q.09,4.23-.45,5t-4,.77q-3,0-3.65-.45t0-2.16q1.26-3.15-1.76-6.71a18.33,18.33,0,0,0-8.6-5.36q-2.88-.9-2.88-.36A4.73,4.73,0,0,0,77.29,63a25.86,25.86,0,0,1,6,10.81q.45,1.8-.27,2.16a15.61,15.61,0,0,1-4.59.36q-4,0-4.77-.45t-1.44-2.7a9.51,9.51,0,0,0-.54-1.58.53.53,0,0,0-.63-.23q-.45.09-.63,2a14.79,14.79,0,0,1-6.21,11.08,5.48,5.48,0,0,0-2.7,3.92A3,3,0,0,0,63.33,91.68Z"/><path class="cls-1" d="M125.1,89.61q1.53-.63,1.17-1.67t-3-3.2q-2.7-2.25-3.56-2.39t-2.21,1.49a13.33,13.33,0,0,1-2,2.07q-1.26.63-9.81.63h-4.68q-11.08,0-12.92-.18a19.69,19.69,0,0,1-5.36-1.71q-3.42-1.44-3.6-1.08-.18.18,0,1.53.18,2,.27,8.64T79.36,103q-.18,3.6.54,4.05,1.17.45,3.78-.45t2.79-1.89q.27-1.44.9-1.71,1.26-.45,14-.45H103q10,0,11.66.27a1.75,1.75,0,0,1,1.67,1.89V105q0,2,4.23.63,2.34-.72,2.75-1.35t.23-3.33a53.15,53.15,0,0,1,0-8.6Q123.75,90.15,125.1,89.61ZM115,99.6q-.72.36-13.6.36t-13.6-.36q-1.44-.72-1.44-5t1.44-5q.63-.36,13.37-.41t13.64.32q1.53.54,1.62,5T115,99.6Z"/><path class="cls-1" d="M201.59,82.48a101.16,101.16,0,0,0-14.84-36.56A102,102,0,0,0,142.48,8.5a101.21,101.21,0,0,0-19-6.17,102.66,102.66,0,0,0-41-.52A101.16,101.16,0,0,0,45.91,16.66,102,102,0,0,0,8.5,60.93a101.22,101.22,0,0,0-6.17,19,102.66,102.66,0,0,0-.52,41,101.16,101.16,0,0,0,14.84,36.56A102,102,0,0,0,60.93,194.9a101.21,101.21,0,0,0,19,6.17,102.44,102.44,0,0,0,20.47,2.33h1.3a102.38,102.38,0,0,0,19.21-1.81,101.17,101.17,0,0,0,36.56-14.84,102,102,0,0,0,37.41-44.27,101.21,101.21,0,0,0,6.17-19,102.66,102.66,0,0,0,.52-41ZM169.85,35.27a95.93,95.93,0,0,1,8.57,10.1H162.65V28.61A95.84,95.84,0,0,1,169.85,35.27ZM49.5,22.12A94.75,94.75,0,0,1,101.69,6.54h1.22a95.89,95.89,0,0,1,19.16,2.18,94.63,94.63,0,0,1,33.84,14.75q1.94,1.34,3.81,2.79V45.37h-116V26.26Q46.52,24.08,49.5,22.12ZM159.72,48.31V155h-116V48.31ZM35.27,33.56q2.64-2.57,5.48-4.94V45.37H25A95.93,95.93,0,0,1,35.27,33.56ZM22.91,48.31H40.75V155H22.83l-.71-1.07a95.26,95.26,0,0,1-5.32-9.17V58.67A95.31,95.31,0,0,1,22.91,48.31ZM8.23,119.7a96.13,96.13,0,0,1,.49-38.36A94.69,94.69,0,0,1,13.86,65v73.36l-.31-.75A94.66,94.66,0,0,1,8.23,119.7Zm25.33,48.44a95.93,95.93,0,0,1-8.66-10.23H40.75v16.88A95.84,95.84,0,0,1,33.56,168.14Zm120.34,13.15A95,95,0,0,1,47.5,179.94q-1.94-1.35-3.82-2.79V157.91h116v19.24Q156.89,179.33,153.91,181.29Zm14.23-11.44q-2.64,2.58-5.48,4.95V157.91h15.85A95.93,95.93,0,0,1,168.14,169.85ZM180.58,155H162.65V48.31h17.83l.8,1.19a95.23,95.23,0,0,1,5.1,8.74v86.92A95.32,95.32,0,0,1,180.58,155Zm16.28-52.06a95.89,95.89,0,0,1-2.18,19.16,94.68,94.68,0,0,1-5.36,16.84V64.51l.53,1.27a94.66,94.66,0,0,1,5.32,17.93A95.88,95.88,0,0,1,196.86,102.91Z"/><path class="cls-1" d="M35.56,255.81a6,6,0,0,1-.81-.35q-.39-.2-.48-1.11t-.15-1.73q-.06-.83-.09-3,0-2.58,0-3,0-1.77-.52-1.81a6.15,6.15,0,0,0-1.73.77q-2.51,1.36-5,2.45t-2.69.9a.45.45,0,0,1-.13-.18s0-.11.09-.18a1.8,1.8,0,0,1,.37-.26l.74-.41q3.87-2.1,6.71-4a10,10,0,0,0,1.92-1.51,3.12,3.12,0,0,0,.29-1.66q0-1.07.11-1.14a4.13,4.13,0,0,1,1.25.07,4.94,4.94,0,0,0,1.86.07,5.61,5.61,0,0,0,1.64-1.18,1.83,1.83,0,0,1,.26-.22q1-.85.63-1.07t-5.35-.3a74.82,74.82,0,0,0-7.93.3,4.21,4.21,0,0,1-1.27.07,2.41,2.41,0,0,1-.57-.85q-.37-.7-.29-.79t1,0q1.51.15,6.12.15a33,33,0,0,0,4.83-.15q.37-.26.48-2.71a6.89,6.89,0,0,0-.22-3q-.63-1-7.34-.11a2.89,2.89,0,0,1-1.11,0,2.25,2.25,0,0,1-.55-.87,4.72,4.72,0,0,1-.26-.63q0-.22.33-.15,1,.15,4.59.22a22.26,22.26,0,0,0,3.93-.07q.92-.44.29-5.64-.07-.52,0-.63a6.47,6.47,0,0,1,2.36.55q.59.18.94.33a1.2,1.2,0,0,1,.48.31.31.31,0,0,1,.07.31A.89.89,0,0,1,40,224a3.33,3.33,0,0,0-.5,2.3q0,1.82.57,2.12a3.13,3.13,0,0,0,2.38.11,4.21,4.21,0,0,0,2.16-1.44q.7-.89.87-.88a3.94,3.94,0,0,1,1.09.77,19.12,19.12,0,0,0,1.6,1.25.67.67,0,0,0,.65,0q.81-.41,2.84-4.09a2.74,2.74,0,0,1,.66-1q.18,0,1.22.74a18.33,18.33,0,0,1,1.7,1.4q.85.81-.07.81a1,1,0,0,0-.66.3,15.34,15.34,0,0,0-1.22,1.36q-1.92,2.36-4.68,5.23l-.33.33-.79.79a6.3,6.3,0,0,0-.55.61l-.33.42q-.17.2,0,.31a1.29,1.29,0,0,1,.18.18s.2.08.48.09l.72,0h1.4a10.89,10.89,0,0,0,2.64-.17,5.5,5.5,0,0,0,1.38-1.53q.48-.74.79-.72a3.77,3.77,0,0,1,1.35.87q2,1.66,1.84,2.21a.42.42,0,0,1-.15.3,60,60,0,0,1-6.49.18h-2a40.38,40.38,0,0,0-4,.11,2.79,2.79,0,0,0-1.42.74l-.41.33q-2,1.62-4.2,3.17a7.12,7.12,0,0,0-1.64,1.35,5.54,5.54,0,0,0-.2,2q0,1.92.3,2.16t1.88-.46a39.22,39.22,0,0,0,9.88-6q.63-.59.88-.59a8.72,8.72,0,0,1,1.47,1.14,5.73,5.73,0,0,1,1.58,1.73q.07.33-.63.22a5.92,5.92,0,0,0-2.36.7,71,71,0,0,1-10.65,3.91,5.12,5.12,0,0,0-2.12.81,5.92,5.92,0,0,0-.24,2.32v1.55a1.24,1.24,0,0,0,.92,1.18,35.92,35.92,0,0,0,5.64.22q5.31,0,6.34-.07,2.1-.15,2.69-1a14.43,14.43,0,0,0,.85-2.73q.77-3.1.77-.22a16.76,16.76,0,0,0,.15,2.8,1.41,1.41,0,0,0,.66,1q1,.63.81,1.25-.41,1.14-3.91,1.47-.77.07-7.52.11t-7.3,0a7.28,7.28,0,0,1-1.42-.26m7.93-21.47q1.24-1.2,2.3-2.38a.11.11,0,0,1,0-.07q1.66-1.77,1.38-2.06t-3.63-.33H42.32q-2.1,0-2.43.37t-.29,2.06v.77a21.48,21.48,0,0,0,.07,2.4.82.82,0,0,0,.41.63,3.65,3.65,0,0,0,1.92-.07,9.84,9.84,0,0,0,1.49-1.31"/><path class="cls-1" d="M65.41,254.79a2.89,2.89,0,0,1-.31-.87,4.43,4.43,0,0,1,.92,0q1.14.11,7.21.13t6.29-.09l0,0q.29-.15.35-1t.06-5.82v-2.32q0-3.69-.31-4.26t-2.45-.5l-1.29,0a48.61,48.61,0,0,0-5.9.33,3,3,0,0,1-1.07.07,2.19,2.19,0,0,1-.48-.81,3.27,3.27,0,0,1-.3-.81q0-.15.52-.07,2.1.19,6.3.2a30.53,30.53,0,0,0,4.53-.13,1.14,1.14,0,0,0,.39-.9q.06-.68.06-5.07v-.44q0-4.16-.07-4.64a1.21,1.21,0,0,0-1.07-1H75.57a59.73,59.73,0,0,0-6.82.3,4.33,4.33,0,0,1-1.29.07q-.18-.07-.55-.81t-.3-.77a2.4,2.4,0,0,1,.92,0q1.33.15,12,.15t10.91-.15a5.7,5.7,0,0,0,1.4-1.51q.74-1,1-1t1.23.76q2.62,2,2.25,2.51a1.41,1.41,0,0,1-1,.35q-.81.06-5.53.09-5.05,0-5.73.07t-.83.41a45.52,45.52,0,0,0-.15,5.64,44.3,44.3,0,0,0,.15,5.6.66.66,0,0,0,.57.42q.42.06,2.64.06a19.44,19.44,0,0,0,2.93-.11q.39-.11,1.2-1.22t1.12-1.16q.24-.06,1.2.68A12.21,12.21,0,0,1,94.74,239q.44.59.11.88A1.5,1.5,0,0,1,94,240l-4.83.06a51,51,0,0,0-5.64.18q-.22,0-.37.41a60.13,60.13,0,0,0-.13,6.53q0,6.19.13,6.45a.83.83,0,0,0,.72.42q.53.06,3.89.06h1.14a11.32,11.32,0,0,0,3.35-.26,6,6,0,0,0,.89-1,8.37,8.37,0,0,1,1.09-1.27q.24-.17.72.17a12.88,12.88,0,0,1,2.12,1.7q1,1,.94,1.29v.07q0,.29-1.86.33t-12.59.07q-10.95,0-13,.07a27.1,27.1,0,0,0-3.67.3,5.27,5.27,0,0,1-1.11.11,5.8,5.8,0,0,1-.42-.87"/><path class="cls-1" d="M105.83,234.11a2.25,2.25,0,0,1,1.11-1.6,6.06,6.06,0,0,0,2.54-4.53q.07-.77.26-.81a.22.22,0,0,1,.26.09,3.87,3.87,0,0,1,.22.65q.26.92.59,1.11a5.71,5.71,0,0,0,2,.18,6.41,6.41,0,0,0,1.88-.15q.29-.15.11-.88a10.59,10.59,0,0,0-2.47-4.42,1.93,1.93,0,0,1-.44-.7q0-.22,1.18.15a7.5,7.5,0,0,1,3.52,2.19,2.62,2.62,0,0,1,.72,2.75q-.26.7,0,.89a3.5,3.5,0,0,0,1.49.18q1.4,0,1.62-.31a4.93,4.93,0,0,0,.18-2,42.72,42.72,0,0,0-.29-4.28.73.73,0,0,1,0-.33q.07-.15,1.33.18a15.39,15.39,0,0,1,2,.59q1.18.48.52,1t-.59,2.62q0,2.18.52,2.47a3,3,0,0,0,1.23.09,2.59,2.59,0,0,0,1.16-.24,8.38,8.38,0,0,0,1.35-2.38A20.87,20.87,0,0,0,129,223a1.31,1.31,0,0,1,.26-.59,7.15,7.15,0,0,1,2.4.77l1,.44q1.33.63.3.92a3.29,3.29,0,0,0-1.07.77s-.32.27-.81.74-.87.81-1.14,1q-1.66,1.48-1.47,1.77t2.8.29a17,17,0,0,0,2.49-.09,3.26,3.26,0,0,0,1.12-.94q.77-.81,1.11-.74a6,6,0,0,1,1.58,1.36,6.52,6.52,0,0,1,1,1.22q.41.59-.44.74a4.84,4.84,0,0,0-1.59,1q-2.62,2.18-3.24,2.21-.44,0-.07-.92.77-2.06.33-2.51-.18-.18-11.15-.24t-11.34.13q-.41.22-.52,1.22a5.29,5.29,0,0,1-1.49,3.32,2.1,2.1,0,0,1-2.53.55,1.21,1.21,0,0,1-.74-1.35m4.24,21.29q.07-.89.07-5.23,0-4.57-.3-7.63a1,1,0,0,1,0-.41q.07-.15,1.66.55a7.3,7.3,0,0,0,2.36.72q.89.06,8.18.06h2.4q4.94,0,5.75-.07a1.55,1.55,0,0,0,1.11-.44.42.42,0,0,0,.15-.15,5.7,5.7,0,0,1,1.07-1,4.13,4.13,0,0,1,1.68,1.05q1.27,1.05,1.27,1.38,0,.15-.59.55-1.07.55-.52,9.47a3.93,3.93,0,0,1-.06,1.42q-.13.28-.94.61-2.36.92-2.14-.48a.81.81,0,0,0-.41-1q-.26-.15-8.61-.15t-8.61.15a1,1,0,0,0-.55.88q0,.52-1.14,1t-1.62.11q-.37-.26-.22-1.4m3.06-15.3q.07-1.07,0-3.8t-.11-3.54c0-.37,0-.58,0-.63s.54,0,1.47.44a8.06,8.06,0,0,0,2.19.7q.76.07,5.29.07h1.92a15.66,15.66,0,0,0,4-.26,5.43,5.43,0,0,0,.81-.85q.55-.66.9-.61a4.69,4.69,0,0,1,1.46,1,4.15,4.15,0,0,1,1.22,1.31q.15.42-.48.68a1.28,1.28,0,0,0-.68,1.12,21.76,21.76,0,0,0,0,3.52,2.91,2.91,0,0,1-.09,1.36,2.31,2.31,0,0,1-1.12.55q-1.73.55-1.73-.26v-.11a.72.72,0,0,0-.68-.77q-.68-.11-4.77-.11h-.63a41.12,41.12,0,0,0-5.75.18q-.26.11-.37.7-.07.41-1.14.77a2.49,2.49,0,0,1-1.55.18q-.3-.18-.22-1.66m7.56,11.28v-.22a3.24,3.24,0,0,0-.07-.81q-.07-.26-.15-.48t-.55-.28q-.48-.06-.94-.07l-1.68,0h-.81a9.06,9.06,0,0,0-3.06.26q-.33.26-.37,1.47v.44q0,1.33.33,1.62a8.49,8.49,0,0,0,3.13.29h.37a13.73,13.73,0,0,0,3.36-.18q.44-.26.44-2m0-4.83q0-1.44-.37-1.81a11.45,11.45,0,0,0-3.37-.24,14.63,14.63,0,0,0-3.45.17q-.48.33-.48,1.81t.48,1.77a11.52,11.52,0,0,0,3.35.22,11.53,11.53,0,0,0,3.36-.22q.44-.26.48-1.7m7.59-10q0-1.82-.66-2a45.89,45.89,0,0,0-5.59-.13,42.9,42.9,0,0,0-5.47.17q-.59.3-.59,2.06t.59,2.06a44.42,44.42,0,0,0,5.57.15,44.43,44.43,0,0,0,5.57-.15q.63-.29.59-2.12m3.06,14.89q-.07-1.57-.66-1.82a14.07,14.07,0,0,0-3.35-.18,14.06,14.06,0,0,0-3.35.18q-.52.26-.55,1.88t.48,1.92a14.57,14.57,0,0,0,3.48.17,14.81,14.81,0,0,0,3.48-.2q.55-.37.48-1.94m0-5q0-1.47-.48-1.77a14.25,14.25,0,0,0-3.45-.2,19,19,0,0,0-3.52.13q-.48.26-.48,1.81t.48,1.84a14.53,14.53,0,0,0,3.48.17,14.82,14.82,0,0,0,3.48-.2q.48-.29.48-1.77"/><path class="cls-1" d="M160.62,256.32a22.79,22.79,0,0,1,.09-2.69,12.82,12.82,0,0,0,0-2.47,1.91,1.91,0,0,1,0-.92q.26-.77.22-8.7,0-6.34-.3-8.59-.11-.89,0-1t1.33.44a9.9,9.9,0,0,0,3.65.94q1.81.09,2.14-.61a4.08,4.08,0,0,0,.17-1.38,3.78,3.78,0,0,0-.13-1.38q-.48-1-5.9-.18-.81.15-.94.15a.22.22,0,0,1-.2-.15.33.33,0,0,0-.42-.13.73.73,0,0,0-.42.46q-.41,1-1.22,1t-1.36-1.22a27.63,27.63,0,0,0-1.66-2.56,7.34,7.34,0,0,0-1.36-1.6.54.54,0,0,0-.7,0,7.25,7.25,0,0,0-1,1.47,30.47,30.47,0,0,1-2.43,3.83q-1.11,1.48-.81,1.82t2.76.39a7.42,7.42,0,0,0,2.19-.09A3.1,3.1,0,0,0,155.4,232a4,4,0,0,1,.59-.74.47.47,0,0,1,.39-.11,2.39,2.39,0,0,1,.72.41q2,1.44,1.9,2t-2.3.65a5.06,5.06,0,0,0-2.25.3,4.67,4.67,0,0,0-.26,2.18,11.77,11.77,0,0,0,.07,1.75.67.67,0,0,0,.41.5.88.88,0,0,0,.9,0,5,5,0,0,0,1.09-1.2,2.94,2.94,0,0,1,.57-.74.41.41,0,0,1,.42-.06,4.46,4.46,0,0,1,.81.57q2,1.62,1.73,2.1t-2.88.48h-2.06a1,1,0,0,0-1,.89q-.11.48-.11,4.83v1.73q0,3.1.28,3.54t2.27,0q.66-.18,1.07-.26a25.16,25.16,0,0,1,2.51-.48c.2,0,.26.09.18.26a18,18,0,0,1-3.06,1.57q-3,1.38-6.27,2.75a9,9,0,0,0-2.8,1.51q-.18.37-.33.37t-1.18-1.73q-.77-1.4-.65-1.6a5.11,5.11,0,0,1,1.9-.53q2.21-.41,2.73-.57a1,1,0,0,0,.66-.53,45.53,45.53,0,0,0,.15-5.62,43.15,43.15,0,0,0-.15-5.55q-.63-.89-3.28-.3a5.17,5.17,0,0,1-1.18.18q-.15,0-.48-.7a2.85,2.85,0,0,1-.35-.87q0-.13.39-.09,1.58.19,2.36.22a14,14,0,0,0,1.44,0,1.1,1.1,0,0,0,.88-.35,2,2,0,0,0,.31-.74,6.49,6.49,0,0,0,.09-1.27,3.68,3.68,0,0,0-.44-2.27q-.44-.46-1.59.09-.44.22-.7-.37t-.63-.42a3.71,3.71,0,0,0-1.18.79q-.88.85-1.16,1.07t-.46.15l-.15,0q-.19-.11.44-1a29.63,29.63,0,0,0,3.26-5.81,24.4,24.4,0,0,0,1.79-6q.15-.77.29-.81a4.87,4.87,0,0,1,1.29.41q2.47,1,2.73,1.11t-.07.37q-.59.44,1,1.25a10,10,0,0,1,2.91,2.1,7,7,0,0,0,.85.77,1.19,1.19,0,0,0,.59.11l.41,0,.7.06.66,0q4.72.3,5.27-.07t.18-5.09q-.07-.7,0-.76a2.44,2.44,0,0,1,.92.2,11.69,11.69,0,0,1,1.92.66q1,.48.44,1a3.11,3.11,0,0,0-.48,2.08q0,1.6.48,1.9a4.38,4.38,0,0,0,1.79.15,4.77,4.77,0,0,0,1.79-.22q1.07-.7.22-1.4a1.4,1.4,0,0,1-.41-.55,7.72,7.72,0,0,0-1.77-2.62q-.85-.85.52-.63,3.76.52,3.76,2.62a2.32,2.32,0,0,0,1,1.66q.81.74.92.81,1,.89.63,1.11a23.42,23.42,0,0,1-4.31.22h-.74a14.35,14.35,0,0,0-3.34.2q-.5.2-.46,1.31v.37q0,1.4.29,1.66a3.8,3.8,0,0,0,1.88.26,5.41,5.41,0,0,0,1.73-.17,2.8,2.8,0,0,0,.92-1.05q.55-.88,1-.59a7.82,7.82,0,0,1,2.21,1.77,2.75,2.75,0,0,1,.48.63.33.33,0,0,1-.06.35,2.86,2.86,0,0,1-.72.5.86.86,0,0,0-.41.37q-.15.52-.18,9.77,0,7.41-.09,8.74a4.52,4.52,0,0,1-.39,1.92,2.33,2.33,0,0,1-.94.87,3.81,3.81,0,0,1-1.31.52q-.59.09-.74-.2a1.6,1.6,0,0,0,0-.17q0-.13-.06-.28a1.07,1.07,0,0,1,0-.26,2.3,2.3,0,0,0-1.47-2,2.2,2.2,0,0,1-.76-.31.23.23,0,0,1,0-.31,2.61,2.61,0,0,1,1.14,0q1.44.15,1.7-.26a8,8,0,0,0,.26-2.8V250a6.14,6.14,0,0,0-.26-2.47q-.26-.29-1.62-.29h-.37a9.11,9.11,0,0,0-1.07,0,1.12,1.12,0,0,0-1.07.88,43.9,43.9,0,0,0,0,6.19,3.2,3.2,0,0,1,0,1.2,1.91,1.91,0,0,1-.77.61,2.29,2.29,0,0,1-1.66.35q-.55-.2-.48-1.2a36.2,36.2,0,0,0,.13-7q-.28-1.11-2.12-1.11h-1a1.06,1.06,0,0,0-1.07.81,36.56,36.56,0,0,0,0,5.6q.07,1.66.06,1.94a.76.76,0,0,1-.24.5,3,3,0,0,1-1.12.66,2.08,2.08,0,0,1-1.16.15.68.68,0,0,1-.53-.59m-12.44-6.52c-.07-.07-.1-.32-.07-.74a19.48,19.48,0,0,0-.66-5.71q-.11-.55-.15-.85,0-1.14,1.55,1.07.26.37.48.74a7.14,7.14,0,0,1,1,4.57q-.26,1.66-1.55,1.4a1.2,1.2,0,0,1-.63-.48m7.11-1.44a29.1,29.1,0,0,0,.59-5.27,4.27,4.27,0,0,1,.17-1.27q.09-.09,1.05.24l1.58.52q.74.18.85.39t-.37.5a4.57,4.57,0,0,0-1.29,2q-.74,1.62-1.18,2.51-1,1.73-1.4,1.36-.15-.11,0-.92m12.53-9.44a15.42,15.42,0,0,0,.07-2,5.67,5.67,0,0,0-.26-2.38q-.26-.31-1.92-.31t-1.92.31a11.09,11.09,0,0,0,0,4.76q.26.31,1.92.31a5.21,5.21,0,0,0,1.66-.15.69.69,0,0,0,.44-.55m0,6.54a15.86,15.86,0,0,0,.07-2,5.82,5.82,0,0,0-.26-2.41q-.26-.31-1.92-.31t-1.92.31a5.81,5.81,0,0,0-.26,2.41,6,6,0,0,0,.26,2.45q.26.31,1.92.31a5.21,5.21,0,0,0,1.66-.15.78.78,0,0,0,.44-.57m7.26-8.5q0-2.25-.63-2.54a4,4,0,0,0-2.1-.18q-1.48.15-1.66.55a12.72,12.72,0,0,0,0,4.31q.18.41,1.66.55a4,4,0,0,0,2.1-.18q.63-.26.63-2.51m-.17,8.48a12.82,12.82,0,0,0,.09-2,5.46,5.46,0,0,0-.28-2.41q-.28-.31-2-.31t-2,.31a5.81,5.81,0,0,0-.26,2.41,6,6,0,0,0,.26,2.45q.26.31,2,.31a5.4,5.4,0,0,0,1.7-.15.84.84,0,0,0,.46-.59"/></g></g></svg>