<svg xmlns="http://www.w3.org/2000/svg" viewBox="0 0 412.6 222.66"><defs><style>.cls-1{fill:#4d4d4d;}.cls-2{fill:none;}</style></defs><title>logo-bellywhite</title><g id="圖層_2" data-name="圖層 2"><g id="contents"><path class="cls-1" d="M186.42,135.12c-3.94-44.81-44.18-68-79.63-68s-75.69,23.2-79.63,68c-.74,8.41.5,20.42,12.36,20.42,13.77,0,36.15-10.81,67.27-10.81s53.49,10.81,67.27,10.81c11.86,0,13.1-12,12.36-20.42m-20.24,8.69a2.59,2.59,0,1,1,2.59-2.59,2.59,2.59,0,0,1-2.59,2.59m10.05,1.82a2.59,2.59,0,1,1,2.59-2.59,2.59,2.59,0,0,1-2.59,2.59"/><path class="cls-1" d="M231.46,100.43c0,.82-.71,1.28-2.13,1.28-1.17,0-1.36-.14-1.36-1.06,0-.44.16-3.27.16-5.29V93.06a20.52,20.52,0,0,1-3.68,2.1c-.17.06-.33-.16-.19-.27,2.43-1.83,5.16-6.14,6.57-9.9.27-.74.38-1.15.52-1.61,4.66,1.23,4.94,1.39,4.94,1.85,0,.3-.25.55-1.36.79-.16.27-.35.57-.55.85h3.25c1.8-1.83,1.91-1.91,2.16-1.91s.49,0,2,1.15c1.28,1,1.5,1.15,1.5,1.53s-.17.46-1.45.82c-1.69,1.2-2.75,2-4.23,3h4.61c1.39-1.45,1.53-1.55,1.8-1.55s.52.05,1.72,1c1,.82,1.23,1.06,1.23,1.31s-.11.41-.87,1.06v1c0,4,.14,5.18.14,6.22,0,.82-.68,1.25-2.21,1.25-1.23,0-1.42-.14-1.42-1v-.27Zm-3.25,1.42a7.21,7.21,0,0,1,1.34,4.2,2.8,2.8,0,0,1-2.92,3.08,1.7,1.7,0,0,1-1.72-1.69,1.84,1.84,0,0,1,1-1.72,3.87,3.87,0,0,0,2-3.77c0-.16.22-.25.3-.11M234,87.42A27.86,27.86,0,0,1,230.69,91a3,3,0,0,1,1.09.46H236c.76-1.5,1.25-2.51,1.91-4Zm1.91,19.21a2.1,2.1,0,0,1-2.13,2.26c-1.12,0-1.69-.57-1.69-1.53,0-.27.05-.63.08-.93a6.07,6.07,0,0,0-.79-4c-.11-.14.11-.25.27-.19,2.95,1,4.26,2.78,4.26,4.37m-4.42-11h3.82c0-1.86,0-2.84-.08-3.63h-3.41a1.18,1.18,0,0,1-.33.3Zm0,4.28h3.82V96.14h-3.82Zm10.37,6.55a2,2,0,0,1-2,2.24c-1.09,0-1.66-.65-1.69-1.8a5.76,5.76,0,0,0-1.83-4.56c-.13-.11,0-.24.16-.22,3.68.71,5.32,2.65,5.32,4.34M239.37,92c0,.25-.16.41-.6.68V95.6h3.87V92Zm3.27,4.17h-3.87v3.74h3.87Zm6.06,10.64a2,2,0,0,1-2.16,2.24c-1,0-1.56-.52-1.8-1.75a6.42,6.42,0,0,0-2.86-4.53c-.14-.08-.05-.27.11-.27,4.31.19,6.71,1.94,6.71,4.31"/><path class="cls-1" d="M268,93.42c0,8,.16,11.57.16,12.55a2.61,2.61,0,0,1-1.66,2.73,4.33,4.33,0,0,1-1.74.35c-.27,0-.46-.22-.68-.79-.33-.87-.79-1.42-2.29-1.91-.16-.05-.16-.3,0-.3a19.84,19.84,0,0,0,2.37-.11c.74-.08.93-.25.93-1V98.85h-2.65c-.35,5.32-1.58,8.07-4.31,10.45-.14.11-.3,0-.22-.16,1.45-2.54,1.91-5.13,1.91-17,0-4.28,0-6.08-.16-7.77,2.18.63,3.16,1,3.46,1.36h1.64c1.14-1.42,1.25-1.45,1.5-1.45s.44.08,1.36.82,1.12,1,1.12,1.2,0,.3-.74,1Zm-2.92,4.88V92.49h-2.54V95c0,1.2,0,2.27-.08,3.27Zm-2-12a2,2,0,0,1-.52.22v5.43h2.54V86.3Zm16.15,21C281,105,281.08,105,281.35,105s.38,0,1.47,1.12,1.26,1.28,1.26,1.53-.08.27-.3.27H271.45c-.82,0-1.47.05-3.06.19l-.24-.93a30.62,30.62,0,0,0,3.3.19h2.07V94.64h-1.61a17.12,17.12,0,0,0-2.76.19l-.25-.93a27.89,27.89,0,0,0,3,.19h1.61v-2c0-4.34,0-6.49-.14-8,4.2.3,4.75.63,4.75,1.06s-.22.6-1.17,1v8h1.55c1.69-2.35,1.83-2.45,2.1-2.45s.41.11,1.64,1.36c.87.9,1,1.09,1,1.31s-.11.33-.27.33h-6v12.69Z"/><path class="cls-1" d="M310.6,89.41c1.36-1.55,1.55-1.75,1.85-1.75s.52.11,1.85,1.06,1.42,1.15,1.42,1.42-.16.44-1,1.15v4.12c0,8.65.17,11.24.17,11.84,0,.79-.63,1.31-2.51,1.31-1.2,0-1.42-.16-1.42-1v-1.28H299.36v.93c0,1.06-.71,1.42-2.26,1.42-1.15,0-1.39-.16-1.39-1,0-.44.11-3.55.11-11.29,0-5.62,0-6.71-.11-8.32,3.06.68,3.93,1.06,4.15,1.42h1.69c.22-1.45.41-2.89.57-4.69,0-.33.05-.87.05-1.39,5,.9,5.35,1.12,5.35,1.53s-.19.57-1.17,1c-1,1.28-2.07,2.45-3.08,3.6ZM299.85,90a1.63,1.63,0,0,1-.49.41v7H311V90ZM311,97.86H299.36v7.86H311Z"/><path class="cls-1" d="M329.75,89.82a18.84,18.84,0,0,0-2.59.19l-.25-.93a21.09,21.09,0,0,0,2.84.19H334c1.53-1.88,1.58-1.91,1.83-1.91s.33.05,1.45,1.12c.82.76.87.87.87,1.06a.27.27,0,0,1-.3.27Zm6.77,12.77c0,1,.14,2.35.14,3.41,0,.82-.76,1.28-1.94,1.28s-1.34-.14-1.34-1v-.52h-2.45v1.56c0,.85-.44,1.31-1.94,1.31-1,0-1.17-.14-1.17-1.06,0-.44.14-2,.14-4.69,0-2.24,0-2.89-.11-4.23,2.4.63,3.19.9,3.44,1.23H333c1.26-1.55,1.34-1.61,1.64-1.61s.44,0,1.55,1,1.12,1,1.12,1.28-.11.38-.82,1Zm-5.29-16.34a22.43,22.43,0,0,0-2.92.19l-.25-.93a25.2,25.2,0,0,0,3.16.19h1.36c1.5-1.77,1.56-1.83,1.8-1.83s.3,0,1.44,1.15c.68.68.76.79.76,1a.28.28,0,0,1-.3.27Zm.14,7a22.43,22.43,0,0,0-2.92.19l-.25-.93a25.2,25.2,0,0,0,3.16.19h1.5C334.28,91,334.33,91,334.58,91s.3,0,1.39,1.09c.65.65.76.79.76,1a.28.28,0,0,1-.3.27Zm-3.16,2.78a25,25,0,0,0,3.16.19h1.5c1.42-1.72,1.47-1.77,1.72-1.77s.3,0,1.39,1.09c.65.65.76.79.76,1a.28.28,0,0,1-.3.27h-5.07a22.42,22.42,0,0,0-2.92.19Zm5.18,9.11v-4.8h-2.13a1.22,1.22,0,0,1-.33.3v4.5Zm12.17-8.84c1.23-1.36,1.34-1.45,1.61-1.45s.44,0,1.72,1.06,1.26,1.09,1.26,1.39-.11.38-1,.85a19.43,19.43,0,0,1-3.17,5.16,21.69,21.69,0,0,0,6.85,2.51c.16,0,.11.16,0,.25a5.55,5.55,0,0,0-2.73,2.62c-.16.33-.36.44-.57.44a1.87,1.87,0,0,1-.79-.19,14.4,14.4,0,0,1-5-3.41,18.94,18.94,0,0,1-10,3.52c-.16,0-.25-.27-.08-.3a16.61,16.61,0,0,0,8.54-5.18c-1-1.75-1.47-3.49-1.85-6.71-.74,0-1.5.08-2.43.19l-.27-.93a30.93,30.93,0,0,0,3.55.19Zm-3.19-8.87c0,4.53-1.83,6.74-5.56,8.18-.16.05-.3-.08-.16-.19,2-1.64,2.67-3.41,2.67-7.39a31.9,31.9,0,0,0-.22-3.87,13.75,13.75,0,0,1,3.6,1.2h1.72c1.2-1.42,1.31-1.5,1.56-1.5s.41,0,1.55,1,1.09,1,1.09,1.23-.14.41-.79.85v3.55c0,.49.11.63,1,.63.68,0,1-.25,1.55-1a20.3,20.3,0,0,0,1.42-2.56.13.13,0,0,1,.25.08,27.1,27.1,0,0,0-.27,2.81,1.26,1.26,0,0,0,.3.85,1.7,1.7,0,0,1,.46,1.06c0,1.25-.87,1.94-4.15,1.94-2.95,0-3.79-.49-3.79-2.65,0-.38.05-.9.05-3.38V85.94h-1.91a1.7,1.7,0,0,1-.38.3Zm-1.61,9.41a10.73,10.73,0,0,0,2.92,4.72,14.86,14.86,0,0,0,2.15-4.72Z"/><path class="cls-1" d="M364,90.14a19,19,0,0,0-2.59.19l-.25-.93a21.08,21.08,0,0,0,2.84.19h6.22c1.55-1.94,1.64-2,1.88-2s.33.05,1.53,1.17c.82.76.87.87.87,1.06a.27.27,0,0,1-.3.27Zm4.86,10.18c1.34-1.64,1.45-1.69,1.75-1.69s.44.06,1.58,1.06c1,.85,1.12,1,1.12,1.31s-.11.41-.82,1v1.06c0,1.45.14,3,.14,4.09,0,.82-.87,1.28-2,1.28s-1.36-.14-1.36-1v-.79H366v1.15c0,.85-.54,1.31-2.07,1.31-1,0-1.17-.14-1.17-1.06,0-.44.14-2,.14-4.69,0-2.32,0-3-.11-4.31,2.51.63,3.33,1,3.57,1.31Zm-2.7-13.8a22.41,22.41,0,0,0-2.92.19l-.25-.93a25,25,0,0,0,3.16.19h2.15c1.56-1.83,1.61-1.88,1.86-1.88s.3,0,1.53,1.2c.68.65.76.79.76,1a.28.28,0,0,1-.3.27Zm2.37,6.6c1.44-1.77,1.53-1.83,1.77-1.83s.3,0,1.47,1.15c.68.63.76.79.76,1a.28.28,0,0,1-.3.27h-5.95a22.45,22.45,0,0,0-2.92.19l-.25-.93a25,25,0,0,0,3.17.19Zm0,3.57c1.44-1.77,1.53-1.83,1.77-1.83s.3,0,1.47,1.15c.68.63.76.79.76,1a.28.28,0,0,1-.3.27h-5.95a22.41,22.41,0,0,0-2.92.19l-.25-.93a25,25,0,0,0,3.17.19Zm.68,9.38v-5.21h-2.86a1.21,1.21,0,0,1-.33.3v4.91Zm13-12.06c1.8-2.54,1.85-2.59,2.13-2.59s.33.05,1.45,1.23S387,94,387,94.21s-.19.35-.55.35h-5.65c0,8.16.14,12.85.14,13.56s-.68,1.15-2.18,1.15c-1.2,0-1.47-.11-1.47-1s.19-5.24.19-13.72h-1.36c-.63,0-1.8.05-3.08.19l-.27-.93c1.34.14,2.56.19,3.35.19h1.36c0-8,0-8.89-.16-10.37,4.17.38,4.5.65,4.5,1s-.27.49-1,.9V94Z"/><path class="cls-1" d="M230.2,131.85c0-1.32-.07-5.78-.11-6.4-.11-2.12-.69-2.19-2.08-2.19h-1.17c-.22,0-.29-.07-.29-.29v-.84c0-.22.07-.33.29-.33.51,0,2.26.15,5.34.11,1.17,0,3.36-.11,5.34-.11,2.78,0,5.12.25,6.43,1a5.09,5.09,0,0,1,2.78,5c0,2.92-1.54,4.68-5,6v.18c4.17,1.1,6.58,3.29,6.58,7.17,0,2-1.1,4.6-2.85,5.56-1.54.88-3.88,1.28-8,1.28-1.46,0-3.88-.11-5.34-.11-2.85,0-4.39.11-5.16.11a.26.26,0,0,1-.26-.29v-.91a.23.23,0,0,1,.26-.26h1.57c1.1,0,1.35-.44,1.46-1.57.07-.88.15-5.7.15-8.7Zm4.46,1.54c.58,0,1.1,0,1.68,0a6.43,6.43,0,0,0,3.87-1.06,5.29,5.29,0,0,0,1.9-4.31,4.54,4.54,0,0,0-1.61-3.73,7.61,7.61,0,0,0-4.17-1.28,5.15,5.15,0,0,0-1.1.07.73.73,0,0,0-.48.58c0,.69-.11,3.84-.11,6.91Zm3.14,13.34c2.85,0,5.48-1.35,5.48-5.81,0-3-1.46-4.9-3.51-5.7a10.76,10.76,0,0,0-4.17-.66h-1v7.31c0,3.44.8,4.86,3.14,4.86"/><path class="cls-1" d="M255.2,139.67c0,3.73,2.67,5.92,4.75,5.92a5,5,0,0,0,4.42-2.12c.15-.25.29-.25.44-.18l.55.33c.18.11.26.25,0,.73a7.24,7.24,0,0,1-6.65,3.88c-2.34,0-4-.51-5.27-2a8.28,8.28,0,0,1-2-6,7.55,7.55,0,0,1,1.79-5.41c1.53-2,3.18-2.7,6.36-2.7,4.17,0,5.52,4.35,5.52,5.85,0,.55-.37.58-1,.58H255.2Zm4.53-2.45c.77,0,1.21-.22,1.21-.51,0-1.1-.37-3.25-2.27-3.25s-2.89,1.32-3.36,3.77Z"/><path class="cls-1" d="M269,127.13a2.23,2.23,0,0,0-1.86-2.19l-.73-.22c-.22-.07-.22-.15-.22-.29V124c0-.07.07-.22.29-.29a30.56,30.56,0,0,0,5.48-2.12,3.31,3.31,0,0,1,.81-.22c.22,0,.36.15.36.66-.07,2-.15,9.58-.15,11.59v5.26c0,1.68,0,5.41.07,6.51.07.66.15,1.17,1,1.17h1.39c.37,0,.44.07.44.33v.66c0,.22-.07.37-.22.37s-1.9-.11-4.46-.11c-2.78,0-4.24.11-4.53.11s-.29-.15-.29-.37v-.69c0-.22.07-.29.51-.29h1.39c.36,0,.91-.29.91-1.32V133.79c0-2.56-.07-5.7-.15-6.65"/><path class="cls-1" d="M278.84,127.13a2.23,2.23,0,0,0-1.86-2.19l-.73-.22c-.22-.07-.22-.15-.22-.29V124c0-.07.07-.22.29-.29a30.54,30.54,0,0,0,5.48-2.12,3.31,3.31,0,0,1,.81-.22c.22,0,.36.15.36.66-.07,2-.15,9.58-.15,11.59v5.26c0,1.68,0,5.41.07,6.51.07.66.15,1.17.95,1.17h1.39c.37,0,.44.07.44.33v.66c0,.22-.07.37-.22.37s-1.9-.11-4.46-.11c-2.78,0-4.24.11-4.53.11s-.29-.15-.29-.37v-.69c0-.22.07-.29.51-.29h1.39c.36,0,.91-.29.91-1.32V133.79c0-2.56-.07-5.7-.15-6.65"/><path class="cls-1" d="M285.68,155.75a1.79,1.79,0,0,1,1.75-1.83,3.75,3.75,0,0,1,1.61.44.89.89,0,0,0,1-.07,34,34,0,0,0,2.78-5.85c-.22-1.1-4.46-12.54-4.71-13.16-.4-.95-.77-1.54-1.5-1.54h-.73c-.22,0-.29-.11-.29-.29v-.8c0-.15.07-.26.29-.26s1.17.11,3.88.11c2.12,0,3.22-.11,3.65-.11.22,0,.29.07.29.29v.81a.23.23,0,0,1-.26.25h-.55c-.37,0-.66.22-.55.77.11.73,2.3,8.22,2.67,9h.15c.66-1.39,3.22-7.64,3.4-8.41.22-.95-.11-1.39-.77-1.39h-.58c-.22,0-.29-.11-.29-.25v-.81c0-.18.07-.29.29-.29.44,0,1.17.11,3.14.11,1.24,0,2.12-.11,2.45-.11s.26.11.26.29v.77c0,.22-.07.29-.22.29h-.44a1.64,1.64,0,0,0-1.32.62c-.73,1-3.22,6.47-5.85,12.39-1.83,3.95-3.36,7.38-4,8.55-.59,1-1.32,2.41-3.29,2.41a2,2,0,0,1-2.19-2"/><path class="cls-1" d="M309.07,147.57l-5-12.87a1.37,1.37,0,0,0-1.39-.95H302a.23.23,0,0,1-.26-.26v-.8c0-.22.07-.29.29-.29.44,0,1.17.11,3.8.11,1.76,0,2.63-.11,3.14-.11.22,0,.29.07.29.29v.8c0,.18-.07.26-.29.26h-.37c-.37,0-.55.29-.37.84l2.63,8.59h.22L314,136a1.79,1.79,0,0,0-.29-1.64,1.12,1.12,0,0,0-.95-.37h-.4c-.18,0-.25-.07-.25-.26v-.8c0-.22.11-.29.33-.29s1.43.11,3.76.11c1.68,0,2.48-.11,2.78-.11s.36.07.36.29v.77c0,.18-.07.29-.29.29h-.58a.6.6,0,0,0-.51.84l2.71,7.93h.15l2.41-6.65c.58-1.61.15-2.34-.73-2.34H322c-.15,0-.22-.11-.22-.26v-.8c0-.22.11-.29.29-.29s1.32.11,3.07.11,2.27-.11,2.63-.11.29.11.29.26v.8c0,.18-.07.29-.25.29h-.55a1.58,1.58,0,0,0-1.39.62c-.36.66-5,12.25-5.59,13.49a.75.75,0,0,1-.77.47c-.37,0-.51-.22-.73-.77l-3.65-9.91h-.22l-4.24,10.05a.89.89,0,0,1-.88.62c-.29,0-.51-.29-.69-.77"/><path class="cls-1" d="M340.54,139.78c0-1.9,0-3.95-1-4.9a2.65,2.65,0,0,0-2-.88,4,4,0,0,0-2.7,1.32,3.17,3.17,0,0,0-.66,1.79V145c0,1.17.15,1.53.66,1.53h.88c.22,0,.37.07.37.33v.66c0,.22-.07.37-.29.37s-1.9-.11-3.8-.11c-2.27,0-3.65.11-3.95.11s-.29-.07-.29-.29v-.8c0-.18.15-.26.33-.26H329c.58,0,1.1-.15,1.2-.58a36.12,36.12,0,0,0,.18-4.53l-.07-13c0-2-.44-2.78-1.68-3.29l-.66-.22c-.22-.07-.29-.15-.29-.29v-.37c0-.15.07-.22.51-.44a37.88,37.88,0,0,0,4.75-2.12,3.13,3.13,0,0,1,1-.29c.29,0,.37.29.29.88s-.07,8-.07,9.83v2.27h.22a6,6,0,0,1,4.72-2.23,5,5,0,0,1,3.65,1.46c1.68,1.46,1.61,3.29,1.61,5.37v7c0,.51.66.58,1.24.58h.66c.29,0,.37.07.37.26v.8c0,.18-.07.29-.29.29s-1.39-.11-3.62-.11-3.51.11-3.88.11-.29-.07-.29-.26v-.88c0-.15.07-.22.26-.22h.62c.44,0,1-.15,1-.73s.07-2.41.07-3.58Z"/><path class="cls-1" d="M350.37,137.37c0-1.1-.22-1.83-1.9-2.27-.33-.07-.37-.18-.37-.33v-.4c0-.15.07-.22.26-.29.51-.22,4.13-1.5,4.75-1.76a2.53,2.53,0,0,1,.88-.22c.22,0,.33.15.29.44-.07.58-.07,2.92-.07,6v3.95c0,1.39,0,2.7.07,3.14.07.66.22.95.58.95h1.46c.29,0,.36.07.36.26v.73c0,.22-.07.37-.29.37s-2-.11-4.42-.11c-2.12,0-3.51.11-3.95.11-.18,0-.29-.07-.29-.37v-.69c0-.22.15-.29.37-.29h1.61c.37,0,.55-.15.59-.73,0-1.1.07-2.27.07-3.29Zm1.24-9a2.3,2.3,0,0,1-2.34-2.19,2.47,2.47,0,0,1,2.56-2.27,2.2,2.2,0,0,1,2.27,2.12,2.32,2.32,0,0,1-2.49,2.34"/><path class="cls-1" d="M358.12,134.55a.46.46,0,0,1-.51-.51c0-.29.22-.51.69-.69a15.4,15.4,0,0,0,5-4.61.6.6,0,0,1,.59-.37c.29,0,.44.22.44.51l-.15,3.62H369c.22,0,.29.15.26.29l-.36,1.54c0,.15-.15.22-.37.22h-4.42c-.07,1.53-.11,3.29-.11,4.9v3.29c0,2.85,1.21,3.44,1.94,3.44a5.09,5.09,0,0,0,2.12-.44c.25-.11.36-.11.44.07l.22.44a.45.45,0,0,1-.15.51,7.6,7.6,0,0,1-4.61,1.46,3.75,3.75,0,0,1-3.84-3.29c0-1.32.11-4.24.11-5.63v-4.75Z"/><path class="cls-1" d="M374.09,139.67c0,3.73,2.67,5.92,4.75,5.92a5,5,0,0,0,4.42-2.12c.15-.25.29-.25.44-.18l.55.33c.18.11.26.25,0,.73a7.24,7.24,0,0,1-6.65,3.88c-2.34,0-4-.51-5.27-2a8.28,8.28,0,0,1-2-6,7.55,7.55,0,0,1,1.79-5.41c1.53-2,3.18-2.7,6.36-2.7,4.17,0,5.52,4.35,5.52,5.85,0,.55-.37.58-1,.58h-8.85Zm4.53-2.45c.77,0,1.21-.22,1.21-.51,0-1.1-.37-3.25-2.27-3.25s-2.89,1.32-3.36,3.77Z"/><rect class="cls-2" width="412.6" height="222.66"/></g></g></svg>