<svg xmlns="http://www.w3.org/2000/svg" viewBox="0 0 595.06 751.69"><defs><style>.cls-1{fill:#999;}</style></defs><title>資產 4</title><g id="圖層_2" data-name="圖層 2"><g id="contents"><path class="cls-1" d="M382.71,321q-9.09-7.51-12-7.51-.79,0-7.64,7.11a3,3,0,0,1-1.05,1.05q-2.11,2.64-7.9,3.16t-41.09.53H295.91q-52.16,0-58.48-.4t-16.86-5.14q-11.33-5-11.85-4a7.19,7.19,0,0,0,0,2.9q2.11,21.87,2.11,54.53,0,31.09-.53,37.41-1.06,8.16,1.58,10,3.42,2.37,11.59-.79t8.17-6.85a6.77,6.77,0,0,1,4-6.32q1.84-1.06,61.51-1.05t61.51,1.05q3.69,1.84,2.9,6.85-1.58,10,15.28,3.42,5.79-2.37,6.72-4.35t.4-10.14q-4-63.75,3.69-67.7,4.21-2.9,4.22-4Q391.8,328.53,382.71,321Zm-96.55,61q0,12.65-3.16,14.49-1.85,1.32-24,1.32H256.4q-19.5,0-22.39-2.11-2.64-2.11-2.37-11.59V381q.26-8.69,2.63-10.54,2.63-1.84,21.86-1.84h5.8q8.69,0,12,.13t6.72.53q3.42.39,4,2c.35,1.05.7,2.2,1.05,3.42a23.11,23.11,0,0,1,.53,5.8Zm.26-34.51q-.27,10.27-3.42,12.12-1.85,1.58-24,1.58t-24-1.58q-3.43-2.11-3.42-12.64t3.42-12.91q2.11-1.31,24.63-1.19t24.1,1.71Q286.69,337.23,286.43,347.5Zm22.92-13.7q2.11-1,25.16-.92t24.63,1.45q3.42,2.11,3.42,12.64t-3.42,12.64q-1.85,1.32-24.89,1.45t-24.89-1.19q-3.43-2.11-3.42-13.17T309.35,333.8Zm49.79,62.7q-1.85,1.32-24.89,1.45t-24.89-1.19q-3.69-2.11-3.42-13.7t4-13.43q2.11-1.32,24-1.32t24,1.32q4.21,1.85,4.74,13T359.13,396.5Z"/><path class="cls-1" d="M185.27,268.21q9.22,4.48,18-4T214,240.55q.79-7.11,3.69-8.69,2.63-1.32,81-.92t79.69,1.71q3.16,3.16-2.37,17.91-2.64,6.85.53,6.59,4.48-.26,23.18-15.81,8.16-6.32,11.33-6.85,6.06-1,3.16-5.27-1.58-2.9-7.38-8.69-9-9.22-11.33-9.75t-7.9,5.27q-5.53,6.06-8,6.72t-17.78.66q-18.71,0-20-2.11t10.54-12.64q2.9-2.37,8.17-7.38t5.8-5.27q5-4.74,7.64-5.53,7.37-2.11-2.11-6.59-2.9-1.32-7.11-3.16-15.28-6.32-17.12-5.53-.79.53-1.84,4.21a149.34,149.34,0,0,1-9.09,25.16q-6.46,14.36-9.61,17-1.85,1.32-8.3,1.71t-8.82-.66q-4-2.11-3.69-17.65t4.21-18.7q4.74-3.69-3.69-7.11a110.39,110.39,0,0,0-14-4.21q-9-2.37-9.48-1.32a5.21,5.21,0,0,0,0,2.37,305.47,305.47,0,0,1,2.11,30.56q.26,12.38-1.32,14.62t-11.59,2.24q-8.69,0-10.67-1.32t-.13-6.32q3.69-9.22-5.14-19.63t-25.16-15.67q-8.43-2.63-8.43-1.05,0,1.06,3.16,5Q239.8,200,243.75,216.05q1.31,5.27-.79,6.32t-13.44,1.05q-11.59,0-14-1.32t-4.21-7.9a27.82,27.82,0,0,0-1.58-4.61,1.56,1.56,0,0,0-1.84-.66q-1.32.27-1.84,5.8-2.37,21.34-18.18,32.4-7.11,4.74-7.9,11.46T185.27,268.21Z"/><path class="cls-1" d="M366,262.15q4.48-1.84,3.43-4.87t-8.69-9.35q-7.9-6.58-10.41-7t-6.45,4.35q-4.48,5.27-5.8,6.06-3.69,1.85-28.71,1.84h-13.7q-32.4,0-37.8-.53t-15.67-5q-10-4.21-10.54-3.16-.53.53,0,4.48.52,5.8.79,25.29t-.26,27.13q-.53,10.54,1.58,11.85,3.42,1.32,11.06-1.32t8.17-5.53q.79-4.21,2.63-5,3.69-1.32,41.09-1.32h4.48q29.24,0,34.11.79t4.87,5.53v.79q0,5.8,12.38,1.84,6.85-2.11,8-4t.66-9.75q-1.06-18.7-.13-25.16T366,262.15Zm-29.5,29.24q-2.11,1.06-39.78,1.05t-39.78-1.05q-4.22-2.11-4.21-14.75t4.21-14.75q1.84-1,39.12-1.19t39.91.92q4.48,1.58,4.74,14.62T336.48,291.39Z"/><path class="cls-1" d="M589.76,241.28a296,296,0,0,0-43.42-107A298.37,298.37,0,0,0,416.82,24.88a296.1,296.1,0,0,0-55.64-18,300.34,300.34,0,0,0-119.9-1.52,296,296,0,0,0-107,43.42A298.37,298.37,0,0,0,24.88,178.25a296.1,296.1,0,0,0-18,55.64,300.34,300.34,0,0,0-1.52,119.9,296,296,0,0,0,43.42,107A298.37,298.37,0,0,0,178.25,570.19a296.1,296.1,0,0,0,55.64,18,299.68,299.68,0,0,0,59.87,6.8l3.81,0a299.5,299.5,0,0,0,56.21-5.31,296,296,0,0,0,107-43.42A298.37,298.37,0,0,0,570.19,416.82a296.1,296.1,0,0,0,18-55.64,300.34,300.34,0,0,0,1.52-119.9Zm-92.88-138.1a280.64,280.64,0,0,1,25.06,29.55h-46.1v-49A280.37,280.37,0,0,1,496.88,103.18ZM144.82,64.71A277.2,277.2,0,0,1,297.49,19.12l3.57,0a280.51,280.51,0,0,1,56,6.37,276.84,276.84,0,0,1,99,43.15q5.67,3.93,11.15,8.16v55.91H127.8V76.83Q136.09,70.45,144.82,64.71Zm322.43,76.62v312H127.8v-312ZM103.18,98.18q7.72-7.53,16-14.46v49H73.11A280.63,280.63,0,0,1,103.18,98.18ZM67,141.32H119.2v312H66.79q-1.05-1.56-2.08-3.12a278.67,278.67,0,0,1-15.56-26.83V171.63A278.84,278.84,0,0,1,67,141.32ZM24.09,350.19A281.22,281.22,0,0,1,25.51,238a277,277,0,0,1,15-47.73V404.83q-.46-1.1-.91-2.19A276.94,276.94,0,0,1,24.09,350.19Zm74.1,141.7A280.64,280.64,0,0,1,72.85,462H119.2v49.38A280.36,280.36,0,0,1,98.18,491.89Zm352.06,38.47A278,278,0,0,1,139,526.41q-5.68-3.94-11.16-8.17V462H467.25v56.28Q459,524.62,450.25,530.36Zm41.64-33.48q-7.73,7.53-16,14.47V462h46.38A280.64,280.64,0,0,1,491.89,496.88Zm36.4-43.51H475.85v-312H528q1.18,1.74,2.34,3.49a278.61,278.61,0,0,1,14.92,25.58V424.69A278.87,278.87,0,0,1,528.28,453.37Zm47.64-152.31a280.52,280.52,0,0,1-6.37,56,277,277,0,0,1-15.68,49.25V188.71q.79,1.85,1.55,3.71A276.93,276.93,0,0,1,571,244.88,280.51,280.51,0,0,1,575.92,301.06Z"/><path class="cls-1" d="M104,748.36a17.64,17.64,0,0,1-2.37-1q-1.13-.6-1.4-3.24T99.81,739q-.16-2.43-.27-8.79,0-7.55-.11-8.74-.11-5.18-1.51-5.29-.65-.11-5.07,2.26-7.34,4-14.67,7.17t-7.87,2.64a1.31,1.31,0,0,1-.38-.54c0-.14.05-.32.27-.54a5.28,5.28,0,0,1,1.08-.75q.75-.43,2.16-1.19,11.32-6.15,19.63-11.76,4.74-3.24,5.61-4.42t.86-4.85q0-3.13.32-3.34t3.67.21q4,.65,5.45.22t4.8-3.45a5.34,5.34,0,0,1,.75-.65q2.8-2.48,1.83-3.13-1.19-.86-15.64-.86a218.87,218.87,0,0,0-23.19.86,12.3,12.3,0,0,1-3.72.21,7.06,7.06,0,0,1-1.67-2.48q-1.08-2-.86-2.32t2.8-.05q4.42.43,17.9.43t14.13-.43q1.08-.75,1.4-7.93t-.65-8.68q-1.84-3-21.46-.32a8.44,8.44,0,0,1-3.24.05,6.58,6.58,0,0,1-1.62-2.53,13.82,13.82,0,0,1-.76-1.83q0-.65,1-.43,2.8.43,13.43.65t11.49-.22q2.69-1.29.86-16.5-.22-1.51.11-1.83.54-.43,6.9,1.62,1.72.54,2.75,1a3.5,3.5,0,0,1,1.4.92.92.92,0,0,1,.21.92,2.59,2.59,0,0,1-.81,1q-1.51,1.4-1.46,6.74t1.67,6.2a9.17,9.17,0,0,0,7,.32,12.3,12.3,0,0,0,6.31-4.21q2-2.59,2.53-2.59t3.18,2.26a55.93,55.93,0,0,0,4.69,3.67,2,2,0,0,0,1.89.11q2.37-1.19,8.3-12,1.4-2.59,1.94-2.8t3.56,2.16a53.63,53.63,0,0,1,5,4.1q2.48,2.37-.22,2.37a3,3,0,0,0-1.94.86,44.87,44.87,0,0,0-3.56,4q-5.61,6.9-13.7,15.31l-1,1L139,685.11a18.43,18.43,0,0,0-1.62,1.78q-.49.65-1,1.24t-.11.92a3.78,3.78,0,0,1,.54.54c.11.15.58.23,1.4.27s1.53.05,2.1.05h4.1q6.58,0,7.71-.49t4-4.48q1.4-2.16,2.32-2.1t3.94,2.53q5.82,4.85,5.39,6.47a1.23,1.23,0,0,1-.43.86q-.86.43-19,.54h-5.72a118.14,118.14,0,0,0-11.81.32,8.17,8.17,0,0,0-4.15,2.16q-.76.65-1.19,1-5.82,4.75-12.29,9.27-4.21,2.91-4.8,3.94t-.59,5.88q0,5.61.86,6.31t5.5-1.35q18-8.09,28.9-17.69,1.83-1.72,2.59-1.73.54.11,4.31,3.34,4.31,3.78,4.64,5.07.22,1-1.83.65-1.73-.22-6.9,2a207.63,207.63,0,0,1-31.17,11.43q-5.5,1.4-6.2,2.37t-.7,6.79v4.53a3.62,3.62,0,0,0,2.7,3.45q2.16.65,16.5.65,15.53,0,18.55-.21,6.15-.43,7.87-3,.75-1.19,2.48-8,2.27-9.06,2.27-.65a49,49,0,0,0,.43,8.2,4.11,4.11,0,0,0,1.94,2.91q3,1.84,2.37,3.67-1.19,3.34-11.43,4.31-2.26.21-22,.32t-21.36-.11a21.28,21.28,0,0,1-4.15-.75m23.19-62.82q3.61-3.5,6.74-7a.31.31,0,0,1,.11-.22q4.85-5.18,4-6t-10.62-1h-3.67q-6.15,0-7.12,1.08-1,.86-.86,6v2.27a62.83,62.83,0,0,0,.22,7,2.4,2.4,0,0,0,1.19,1.83,10.68,10.68,0,0,0,5.61-.22,28.8,28.8,0,0,0,4.37-3.83"/><path class="cls-1" d="M191.36,745.39a8.45,8.45,0,0,1-.92-2.53,13,13,0,0,1,2.7.11q3.34.32,21.08.38t18.39-.27l.11-.11q.86-.43,1-2.91t.16-17v-6.79q.11-10.78-.92-12.46t-7.17-1.45q-2.37.11-3.77.11a142.21,142.21,0,0,0-17.26,1,8.71,8.71,0,0,1-3.13.22,6.41,6.41,0,0,1-1.4-2.37,9.57,9.57,0,0,1-.86-2.37q0-.43,1.51-.22,6.15.54,18.44.59t13.27-.38a3.33,3.33,0,0,0,1.13-2.64q.16-2,.16-14.83v-1.29q0-12.18-.21-13.59a3.55,3.55,0,0,0-3.13-3h-9.49a174.75,174.75,0,0,0-20,.86,12.68,12.68,0,0,1-3.78.22q-.54-.22-1.62-2.37t-.86-2.26a7,7,0,0,1,2.7,0q3.88.43,35.05.43t31.92-.43q1.29-.65,4.1-4.42,2.16-2.8,2.86-2.86t3.61,2.21q7.66,5.72,6.58,7.33-.65.86-3,1t-16.18.27q-14.78.11-16.77.22t-2.43,1.19q-.43.87-.43,16.5t.43,16.39A1.93,1.93,0,0,0,245,699q1.24.16,7.71.16,7.44,0,8.57-.32t3.5-3.56q2.59-3.24,3.29-3.4t3.5,2a35.71,35.71,0,0,1,5.61,5.18q1.29,1.73.32,2.59a4.37,4.37,0,0,1-2.48.49q-2,.05-14.13.16-15,.11-16.5.54-.65.11-1.08,1.19t-.38,19.09q.05,18.12.38,18.87a2.42,2.42,0,0,0,2.1,1.24q1.56.16,11.38.16h3.34q8.41,0,9.81-.76a17.51,17.51,0,0,0,2.59-3,24.48,24.48,0,0,1,3.18-3.72q.7-.48,2.1.49a37.67,37.67,0,0,1,6.2,5q3,2.91,2.75,3.77v.22q-.11.86-5.45,1t-36.83.22q-32,.11-37.91.22a79.27,79.27,0,0,0-10.73.86,15.42,15.42,0,0,1-3.24.32,17,17,0,0,1-1.24-2.53"/><path class="cls-1" d="M309.59,684.89a6.57,6.57,0,0,1,3.24-4.69q6.47-4.53,7.44-13.27.21-2.26.75-2.37a.64.64,0,0,1,.75.27,11.32,11.32,0,0,1,.65,1.89q.75,2.7,1.73,3.24t5.72.54q4.63,0,5.5-.43t.32-2.59a31,31,0,0,0-7.23-12.94,5.65,5.65,0,0,1-1.29-2q0-.65,3.45.43a22,22,0,0,1,10.3,6.42q3.61,4.26,2.1,8-.76,2.05.05,2.59t4.37.54q4.1,0,4.75-.92t.54-6a125,125,0,0,0-.86-12.51,2.15,2.15,0,0,1,0-1q.21-.43,3.88.54a45,45,0,0,1,5.72,1.73q3.45,1.4,1.51,2.91-1.62,1.29-1.73,7.66t1.51,7.23a8.8,8.8,0,0,0,3.61.27,7.57,7.57,0,0,0,3.4-.7q1.29-1.08,3.94-7a61.07,61.07,0,0,0,3.72-10.3,3.83,3.83,0,0,1,.75-1.73q.75-.32,7,2.26l2.91,1.29q3.88,1.84.86,2.7a9.64,9.64,0,0,0-3.13,2.27q-.22.11-2.37,2.16t-3.34,3q-4.85,4.32-4.31,5.18t8.2.86a49.84,49.84,0,0,0,7.28-.27q1-.27,3.29-2.75t3.24-2.16q1,.22,4.64,4a19.09,19.09,0,0,1,3,3.56q1.19,1.72-1.29,2.16-1.29.22-4.64,2.8-7.66,6.36-9.49,6.47-1.29.11-.21-2.7,2.26-6,1-7.33-.54-.54-32.63-.7t-33.16.38q-1.19.65-1.51,3.56-.75,6.26-4.37,9.71t-7.39,1.62a3.54,3.54,0,0,1-2.16-3.94M322,747.17q.21-2.59.22-15.31,0-13.37-.86-22.33a3,3,0,0,1,0-1.19q.22-.43,4.85,1.62a21.37,21.37,0,0,0,6.9,2.1q2.59.16,23.94.16h7q14.45,0,16.83-.22a4.53,4.53,0,0,0,3.24-1.29,1.22,1.22,0,0,0,.43-.43q2.8-2.91,3.13-2.91,1.19,0,4.91,3.07t3.72,4q0,.43-1.73,1.62-3.13,1.62-1.51,27.72a11.51,11.51,0,0,1-.16,4.15q-.38.81-2.75,1.78-6.9,2.69-6.26-1.4a2.38,2.38,0,0,0-1.19-2.8q-.76-.43-25.18-.43t-25.18.43a2.77,2.77,0,0,0-1.62,2.59q0,1.51-3.34,2.8t-4.75.32q-1.08-.76-.65-4.1m9-44.76q.22-3.13.11-11.11T330.73,681c-.14-1.08-.14-1.69,0-1.83s1.58.14,4.31,1.29a23.57,23.57,0,0,0,6.42,2q2.21.22,15.48.22h5.61q10.25,0,11.76-.76a15.88,15.88,0,0,0,2.37-2.48q1.62-1.94,2.64-1.78t4.26,2.86q3.13,2.59,3.56,3.83t-1.4,2q-1.62.65-2,3.29a63.66,63.66,0,0,0,.05,10.3q.21,3.24-.27,4t-3.29,1.62q-5.07,1.62-5.07-.75v-.32a2.1,2.1,0,0,0-2-2.27q-2-.32-14-.32h-1.83q-15.32,0-16.83.54-.75.32-1.08,2-.22,1.19-3.34,2.26t-4.53.54q-.86-.54-.65-4.85m22.11,33v-.65a9.49,9.49,0,0,0-.21-2.37q-.22-.75-.43-1.4t-1.62-.81q-1.4-.16-2.75-.22t-4.91-.05h-2.37q-7.87,0-9,.75T330.73,735v1.29q-.11,3.88,1,4.75t9.17.86h1.08q9.06,0,9.82-.54,1.29-.75,1.29-5.93m.11-14.13q.11-4.21-1.08-5.28-.65-.65-9.87-.7t-10.08.49q-1.4,1-1.4,5.28t1.4,5.18q.75.65,9.81.65t9.82-.65q1.29-.75,1.4-5m22.22-29.17q-.11-5.34-1.94-6-1.08-.43-16.34-.38t-16,.49q-1.73.86-1.73,6t1.73,6q.86.43,16.29.43t16.28-.43q1.83-.86,1.73-6.2m9,43.57q-.22-4.58-1.94-5.34-.86-.54-9.81-.54t-9.81.54q-1.51.76-1.62,5.5t1.4,5.61q.75.54,10.19.49t10.19-.59q1.62-1.08,1.4-5.66m0-14.61q0-4.31-1.4-5.18-.65-.54-10.08-.59t-10.3.38q-1.4.76-1.4,5.29t1.4,5.39q.75.54,10.19.49t10.19-.59q1.4-.86,1.4-5.18"/><path class="cls-1" d="M469.89,749.87a66.68,66.68,0,0,1,.27-7.87,37.52,37.52,0,0,0,0-7.23,5.59,5.59,0,0,1,0-2.7q.75-2.26.65-25.45-.11-18.55-.86-25.13-.32-2.59,0-2.8t3.88,1.29a29,29,0,0,0,10.68,2.75q5.28.27,6.26-1.78a11.94,11.94,0,0,0,.49-4,11,11,0,0,0-.38-4q-1.4-3-17.26-.54-2.37.43-2.75.43a.65.65,0,0,1-.59-.43,1,1,0,0,0-1.24-.38,2.12,2.12,0,0,0-1.24,1.35q-1.19,3-3.56,2.8t-4-3.56a80.83,80.83,0,0,0-4.85-7.5q-2.91-4-4-4.69a1.57,1.57,0,0,0-2,0,21.2,21.2,0,0,0-2.91,4.31,89.15,89.15,0,0,1-7.12,11.22q-3.24,4.32-2.37,5.34t8.09,1.13q5.18.22,6.42-.27t3.18-3.29a11.74,11.74,0,0,1,1.73-2.16,1.37,1.37,0,0,1,1.13-.32,7,7,0,0,1,2.1,1.19q5.82,4.21,5.55,5.88t-6.74,1.89q-5.82.11-6.58.86t-.75,6.36a34.43,34.43,0,0,0,.22,5.12,2,2,0,0,0,1.19,1.46,2.58,2.58,0,0,0,2.64.05,14.54,14.54,0,0,0,3.18-3.51,8.6,8.6,0,0,1,1.67-2.16,1.21,1.21,0,0,1,1.24-.16,13,13,0,0,1,2.37,1.67q5.72,4.75,5.07,6.15t-8.41,1.4h-6a3,3,0,0,0-2.8,2.59q-.32,1.4-.32,14.13v5.07q-.11,9.06.81,10.35t6.63-.11q1.94-.54,3.13-.75a73.61,73.61,0,0,1,7.33-1.4c.57,0,.75.25.54.75s-3.13,1.89-9,4.58-11.94,5.37-18.34,8q-7.33,3.13-8.2,4.42-.54,1.08-1,1.08-.76,0-3.45-5.07-2.26-4.1-1.89-4.69t5.55-1.56q6.47-1.19,8-1.67a2.85,2.85,0,0,0,1.94-1.56q.43-.86.43-16.45T443.2,704q-1.84-2.59-9.6-.86a15.12,15.12,0,0,1-3.45.54q-.43-.11-1.4-2a8.34,8.34,0,0,1-1-2.53q.05-.38,1.13-.27,4.63.54,6.9.65a40.91,40.91,0,0,0,4.21,0,3.23,3.23,0,0,0,2.59-1,5.85,5.85,0,0,0,.92-2.16,19,19,0,0,0,.27-3.72q0-5.28-1.29-6.63t-4.64.27q-1.29.65-2-1.08-.76-1.51-1.83-1.24a10.86,10.86,0,0,0-3.45,2.32q-2.59,2.48-3.4,3.13t-1.35.43a1.84,1.84,0,0,0-.43-.11q-.54-.32,1.29-3a86.68,86.68,0,0,0,9.54-17,71.39,71.39,0,0,0,5.23-17.42q.43-2.26.86-2.37a14.24,14.24,0,0,1,3.78,1.19q7.22,2.81,8,3.23t-.21,1.08q-1.73,1.29,2.91,3.67a29.23,29.23,0,0,1,8.52,6.15,20.34,20.34,0,0,0,2.48,2.27,3.48,3.48,0,0,0,1.73.32l1.19.05,2,.16q1.19.11,1.94.11,13.81.86,15.42-.22,1.94-1.51.54-14.88-.22-2,.11-2.21a7.15,7.15,0,0,1,2.7.59,34.19,34.19,0,0,1,5.61,1.94q3,1.4,1.29,3-1.4,1.4-1.4,6.09t1.4,5.55q.75.54,5.23.43t5.23-.65q3.13-2,.65-4.1a4.1,4.1,0,0,1-1.19-1.62,22.59,22.59,0,0,0-5.18-7.66q-2.48-2.48,1.51-1.83,11,1.51,11,7.66,0,2.37,2.8,4.85,2.37,2.16,2.7,2.37,2.91,2.59,1.83,3.24t-12.62.65h-2.16q-8.31,0-9.76.59T499,675.78v1.08q0,4.1.86,4.85t5.5.75a15.84,15.84,0,0,0,5.07-.49q1.08-.48,2.7-3.07t3-1.73a22.89,22.89,0,0,1,6.47,5.18,8,8,0,0,1,1.4,1.83,1,1,0,0,1-.16,1,8.36,8.36,0,0,1-2.1,1.46,2.52,2.52,0,0,0-1.19,1.08q-.43,1.51-.54,28.58-.11,21.68-.27,25.56a13.21,13.21,0,0,1-1.13,5.61,6.81,6.81,0,0,1-2.75,2.53,11.13,11.13,0,0,1-3.83,1.51q-1.73.27-2.16-.59a4.67,4.67,0,0,0-.05-.48q-.06-.38-.16-.81a3.13,3.13,0,0,1-.11-.75q-.76-4.42-4.31-5.72a6.44,6.44,0,0,1-2.21-.92.68.68,0,0,1-.05-.92q.32-.32,3.34-.11,4.21.43,5-.75t.75-8.2v-.86q0-6.25-.75-7.23t-4.75-.86h-1.08a26.65,26.65,0,0,0-3.13.11,3.27,3.27,0,0,0-3.13,2.59q-.54,2.37.11,18.12a9.36,9.36,0,0,1-.11,3.51,5.6,5.6,0,0,1-2.26,1.78q-3.24,1.62-4.85,1t-1.4-3.51q1.19-17.15.38-20.38t-6.2-3.23h-3a3.11,3.11,0,0,0-3.13,2.37q-.54,2.05,0,16.39.22,4.85.16,5.66a2.24,2.24,0,0,1-.7,1.46,8.8,8.8,0,0,1-3.29,1.94,6.08,6.08,0,0,1-3.4.43,2,2,0,0,1-1.56-1.73m-36.4-19.09c-.22-.22-.29-.93-.22-2.16q.54-5.93-1.94-16.72-.32-1.62-.43-2.48-.11-3.34,4.53,3.13.75,1.08,1.4,2.16,4,7.23,3,13.37-.76,4.85-4.53,4.1a3.51,3.51,0,0,1-1.83-1.4m20.81-4.21A85.13,85.13,0,0,0,456,711.15q.22-3.45.49-3.72t3.07.7q4.21,1.4,4.64,1.51,2.16.54,2.48,1.13t-1.08,1.46q-1.72,1.08-3.77,5.72t-3.45,7.33q-2.81,5.07-4.1,4-.43-.32,0-2.7M491,699a45.11,45.11,0,0,0,.22-5.82q0-6-.76-7t-5.61-.92q-4.85,0-5.61.92t-.75,7q0,6,.75,7t5.61.92q4,0,4.85-.43A2,2,0,0,0,491,699m0,19.14a46.41,46.41,0,0,0,.22-6q0-6.15-.76-7.06t-5.61-.92q-4.85,0-5.61.92t-.75,7.06q0,6.26.75,7.17t5.61.92q4,0,4.85-.43a2.27,2.27,0,0,0,1.29-1.67m21.25-24.86q0-6.58-1.83-7.44t-6.15-.54q-4.32.43-4.85,1.62-.54.86-.54,6.31t.54,6.31q.54,1.19,4.85,1.62t6.15-.54q1.83-.75,1.83-7.33m-.49,24.81a37.5,37.5,0,0,0,.27-5.93q0-6.15-.81-7.06t-5.77-.92q-5,0-5.72.92t-.75,7.06q0,6.26.75,7.17t5.72.92q4.1,0,5-.43a2.45,2.45,0,0,0,1.35-1.73"/></g></g></svg>