<svg xmlns="http://www.w3.org/2000/svg" viewBox="0 0 663.28 416.5"><defs><style>.cls-1{fill:#fff;}.cls-2{fill:none;stroke:#f2f2f2;stroke-miterlimit:10;stroke-width:3px;}.cls-3,.cls-4{fill:#ccc;}.cls-4{font-size:29.05px;font-family:DFLiSong-Md-WIN-BF, DFLiSong-Md;letter-spacing:0.08em;}</style></defs><title>ticket-simplest</title><g id="圖層_2" data-name="圖層 2"><g id="contents"><rect class="cls-1" y="0.14" width="663.28" height="415.94"/><line class="cls-2" x1="15.45" x2="15.45" y2="416"/><line class="cls-2" x1="33.45" y1="0.5" x2="33.45" y2="416.5"/><line class="cls-2" x1="627.45" x2="627.45" y2="416"/><line class="cls-2" x1="645.45" y1="0.5" x2="645.45" y2="416.5"/><line class="cls-2" x1="0.45" y1="20" x2="662.45" y2="20"/><line class="cls-2" x1="0.95" y1="364.17" x2="662.95" y2="364.17"/><path class="cls-3" d="M343,88.27a3.94,3.94,0,0,0-1.6-1,5.43,5.43,0,0,0-1,.95.39.39,0,0,1-.14.14,1.48,1.48,0,0,1-1.05.42q-.77.07-5.48.07h-2.28q-7,0-7.8-.05a7,7,0,0,1-2.25-.69q-1.51-.67-1.58-.53a1,1,0,0,0,0,.39q.28,2.92.28,7.27,0,4.15-.07,5-.14,1.09.21,1.34t1.55-.11q1.09-.42,1.09-.91a.9.9,0,0,1,.53-.84q.25-.14,8.2-.14t8.2.14a.77.77,0,0,1,.39.91q-.21,1.33,2,.46.77-.32.9-.58a3.74,3.74,0,0,0,.05-1.35q-.53-8.5.49-9,.56-.39.56-.53Q344.21,89.27,343,88.27Zm-12.88,8.13q0,1.69-.42,1.93a13.07,13.07,0,0,1-3.2.18h-.35a8.09,8.09,0,0,1-3-.28q-.35-.28-.32-1.55v-.42q0-1.16.35-1.41a8.63,8.63,0,0,1,2.92-.25h.77l1.6,0q.44,0,.9.07t.53.26c0,.14.09.29.14.46a3.08,3.08,0,0,1,.07.77Zm0-4.6q0,1.37-.46,1.62a24.35,24.35,0,0,1-6.39,0q-.46-.28-.46-1.69t.46-1.72a13.94,13.94,0,0,1,3.29-.16,10.92,10.92,0,0,1,3.21.23Q330.19,90.43,330.16,91.8ZM333.21,90a18,18,0,0,1,3.36-.12,13.59,13.59,0,0,1,3.29.19q.46.28.46,1.69t-.46,1.69a14.12,14.12,0,0,1-3.32.19,13.85,13.85,0,0,1-3.32-.16q-.46-.28-.46-1.76T333.21,90Zm6.64,8.36a14.12,14.12,0,0,1-3.32.19,13.85,13.85,0,0,1-3.32-.16q-.49-.28-.46-1.83t.53-1.79a29.18,29.18,0,0,1,6.39,0q.56.25.63,1.74T339.85,98.34Z"/><path class="cls-3" d="M316.66,81.23a2,2,0,0,0,2.41-.53,5,5,0,0,0,1.42-3.16q.11-.95.49-1.16t10.8-.12q10.45.05,10.63.23.42.42-.32,2.39-.35.91.07.88.6,0,3.09-2.11a4.61,4.61,0,0,1,1.51-.91q.81-.14.42-.7a6.22,6.22,0,0,0-1-1.16,5.73,5.73,0,0,0-1.51-1.3q-.32-.07-1.05.7a3.11,3.11,0,0,1-1.07.9,16.28,16.28,0,0,1-2.37.09q-2.5,0-2.67-.28t1.41-1.69q.39-.32,1.09-1t.77-.7a3.14,3.14,0,0,1,1-.74q1-.28-.28-.88l-.95-.42a6.84,6.84,0,0,0-2.28-.74,1.25,1.25,0,0,0-.25.56,19.92,19.92,0,0,1-1.21,3.36A8,8,0,0,1,335.57,75a2.47,2.47,0,0,1-1.11.23,2.86,2.86,0,0,1-1.18-.09q-.53-.28-.49-2.35t.56-2.49q.63-.49-.49-.95a14.72,14.72,0,0,0-1.86-.56q-1.19-.32-1.26-.18a.7.7,0,0,0,0,.32A40.74,40.74,0,0,1,330,73a4.7,4.7,0,0,1-.18,2q-.21.3-1.55.3a3.32,3.32,0,0,1-1.42-.18q-.26-.18,0-.84a2.5,2.5,0,0,0-.69-2.62,7.15,7.15,0,0,0-3.36-2.09q-1.12-.35-1.12-.14a1.85,1.85,0,0,0,.42.67,10.09,10.09,0,0,1,2.35,4.22q.18.7-.11.84a6.09,6.09,0,0,1-1.79.14,5.43,5.43,0,0,1-1.86-.18q-.32-.18-.56-1.05a3.71,3.71,0,0,0-.21-.61.21.21,0,0,0-.25-.09q-.18,0-.25.77A5.77,5.77,0,0,1,317,78.42,2.14,2.14,0,0,0,316,79.95,1.15,1.15,0,0,0,316.66,81.23Z"/><path class="cls-3" d="M340.77,80.42q.6-.25.46-.65a4,4,0,0,0-1.16-1.25,4.47,4.47,0,0,0-1.39-.93q-.33-.05-.86.58A5.2,5.2,0,0,1,337,79a14.94,14.94,0,0,1-3.83.25h-1.83q-4.32,0-5-.07a7.68,7.68,0,0,1-2.09-.67q-1.34-.56-1.41-.42s0,.25,0,.6q.07.77.11,3.37t0,3.62q-.07,1.41.21,1.58a2.37,2.37,0,0,0,1.48-.18q1-.35,1.09-.74.11-.56.35-.67a39.24,39.24,0,0,1,5.48-.18h.6q3.9,0,4.55.11a.68.68,0,0,1,.65.74v.11q0,.77,1.65.25a2.21,2.21,0,0,0,1.07-.53,2.77,2.77,0,0,0,.09-1.3,20.74,20.74,0,0,1,0-3.36A1.22,1.22,0,0,1,340.77,80.42Zm-3.94,3.9a100.23,100.23,0,0,1-10.61,0q-.56-.28-.56-2t.56-2a41,41,0,0,1,5.22-.16,43.67,43.67,0,0,1,5.32.12q.6.21.63,1.95T336.83,84.32Z"/><path class="cls-3" d="M370.61,77.64a39.47,39.47,0,0,0-5.79-14.27,39.8,39.8,0,0,0-17.27-14.6,39.49,39.49,0,0,0-7.42-2.41,40.06,40.06,0,0,0-16-.2A39.47,39.47,0,0,0,309.87,52a39.8,39.8,0,0,0-14.6,17.27,39.49,39.49,0,0,0-2.41,7.42,40.06,40.06,0,0,0-.2,16,39.47,39.47,0,0,0,5.79,14.27,39.8,39.8,0,0,0,17.27,14.6,39.49,39.49,0,0,0,7.42,2.41,40,40,0,0,0,8,.91h.51a40,40,0,0,0,7.5-.71,39.47,39.47,0,0,0,14.27-5.79A39.8,39.8,0,0,0,368,101a39.49,39.49,0,0,0,2.41-7.42,40.06,40.06,0,0,0,.2-16ZM358.23,59.22a37.43,37.43,0,0,1,3.34,3.94h-6.15V56.62A37.39,37.39,0,0,1,358.23,59.22Zm-47-5.13A37,37,0,0,1,331.63,48h.48a37.41,37.41,0,0,1,7.47.85,36.92,36.92,0,0,1,13.2,5.75q.76.52,1.49,1.09v7.46H309V55.7Q310.1,54.85,311.27,54.09Zm43,10.22v41.62H309V64.3Zm-48.56-5.75q1-1,2.14-1.93v6.54h-6.15A37.43,37.43,0,0,1,305.72,58.55Zm-4.82,5.75h7v41.62h-7l-.28-.42a37.17,37.17,0,0,1-2.08-3.58V68.35A37.19,37.19,0,0,1,300.89,64.3Zm-5.73,27.86a37.51,37.51,0,0,1,.19-15,37,37,0,0,1,2-6.37V99.45l-.12-.29A36.94,36.94,0,0,1,295.17,92.16Zm9.88,18.9a37.43,37.43,0,0,1-3.38-4h6.18v6.59A37.39,37.39,0,0,1,305,111.06Zm47,5.13a37.08,37.08,0,0,1-41.52-.53q-.76-.53-1.49-1.09v-7.51h45.28v7.51Q353.17,115.43,352,116.19Zm5.55-4.47q-1,1-2.14,1.93v-6.59h6.19A37.43,37.43,0,0,1,357.56,111.73Zm4.85-5.8h-7V64.3h7l.31.47a37.16,37.16,0,0,1,2,3.41V102.1A37.2,37.2,0,0,1,362.41,105.92Zm6.35-20.31a37.41,37.41,0,0,1-.85,7.47,37,37,0,0,1-2.09,6.57v-29l.21.5a36.94,36.94,0,0,1,2.07,7A37.41,37.41,0,0,1,368.77,85.61Z"/><text class="cls-4" transform="translate(241.03 93.65)">入</text><text class="cls-4" transform="translate(391.03 93.65)">押</text><text></text></g></g></svg>