<svg xmlns="http://www.w3.org/2000/svg" viewBox="0 0 663.28 416.5"><defs><style>.cls-1{fill:#fff;}.cls-2{fill:none;stroke:#f2f2f2;stroke-miterlimit:10;stroke-width:3px;}.cls-3{fill:#999;}.cls-4{fill:#ccc;}</style></defs><title>ticket</title><g id="圖層_2" data-name="圖層 2"><g id="contents"><rect class="cls-1" y="0.14" width="663.28" height="415.94"/><line class="cls-2" x1="15.45" x2="15.45" y2="416"/><line class="cls-2" x1="33.45" y1="0.5" x2="33.45" y2="416.5"/><line class="cls-2" x1="627.45" x2="627.45" y2="416"/><line class="cls-2" x1="645.45" y1="0.5" x2="645.45" y2="416.5"/><line class="cls-2" x1="0.45" y1="20" x2="662.45" y2="20"/><line class="cls-2" x1="0.95" y1="364.17" x2="662.95" y2="364.17"/><path class="cls-3" d="M176.37,385.36a3.84,3.84,0,0,0,1.06.14h2.81a15.15,15.15,0,0,1,1.13-1.21c.69.55.9.73,1.56,1.28.07.09.1.14.1.19s-.07.1-.16.1h-5.46a3.75,3.75,0,0,0-.94.1Zm.4-2.23a4.54,4.54,0,0,0,1,.14h2.11c.48-.5.64-.64,1.09-1.16.67.54.88.69,1.52,1.25.07.09.09.12.09.17s-.07.1-.17.1h-4.62a3.75,3.75,0,0,0-.92.1Zm.09,4.47a4.07,4.07,0,0,0,1,.12h1.92l1-1.18c.69.54.9.71,1.52,1.26.07.09.1.12.1.17s-.07.1-.17.1h-4.43a3.58,3.58,0,0,0-.83.09Zm0,2.27a3.86,3.86,0,0,0,1,.12h2c.43-.52.57-.68,1-1.18.69.54.9.71,1.54,1.26a.23.23,0,0,1,.09.16c0,.07-.07.12-.21.12h-4.38a4,4,0,0,0-.85.09Zm1.84,7.72v.05c0,.31-.24.38-1.18.38-.52,0-.61,0-.61-.31.05-1.33.07-2.06.07-3.53,0-1.11,0-1.65-.07-2.81a15.63,15.63,0,0,1,1.94,1h1.21c.36-.43.48-.55.85-1l1.26,1c.14.14.19.21.19.29s-.1.21-.5.45v1.42c0,1,0,1.59,0,2.74v.05a.33.33,0,0,1-.14.29,3.33,3.33,0,0,1-1,.14c-.52,0-.61,0-.61-.33V397h-1.44Zm0-1h1.44v-3.88h-1.44Zm11-9.8c.4-.4.52-.52.94-.9.61.42.8.55,1.35,1,.14.1.19.17.19.24s-.14.26-.59.47c0,1.75,0,2.1.05,3,0,.35-.09.38-.93.45.83.59.9.64,1.54,1.14.07.09.1.14.1.17s-.07.12-.19.12H188v1.87h1.25c.47-.54.61-.69,1.09-1.21.73.55,1,.73,1.66,1.33.05.07.07.1.07.14s-.07.1-.16.1H188V397h1.85c.52-.57.67-.75,1.19-1.3.76.59,1,.76,1.71,1.37.07.09.1.14.1.17s-.09.12-.19.12h-9.35a4.29,4.29,0,0,0-1,.1l-.1-.59a5.19,5.19,0,0,0,1.11.12h2.91v-2.18H184.1a5,5,0,0,0-1.06.1l-.1-.59a5.32,5.32,0,0,0,1.16.12h2.15v-1.87h-2.42a4.11,4.11,0,0,0-1,.1l-.12-.59a4.86,4.86,0,0,0,1.13.12h2.41v-1.8h-1.63v.48c0,.36-.22.43-1.23.43-.45,0-.55-.05-.55-.31.05-1,.05-1.23.05-2.53,0-1.13,0-1.68,0-2.51a17.57,17.57,0,0,1,1.94.87ZM188,384.12c0-.52,0-.54,0-.69v-.21a7.43,7.43,0,0,0-.07-1,10.59,10.59,0,0,1,2.32.23c.16.05.23.12.23.19s-.19.26-.71.43v1.07h.68a13.78,13.78,0,0,1,.92-1.11c.64.5.83.67,1.46,1.19.05.09.09.12.09.17s-.07.1-.19.1h-2.93c0,.61,0,1,0,1.28s-.24.43-1.18.43c-.59,0-.66,0-.68-.31a13.89,13.89,0,0,0,0-1.4h-1.77c0,.35,0,.35,0,1.25v.05c0,.35-.22.43-1.19.43-.54,0-.64-.05-.64-.33,0-1.07,0-1.07,0-1.4h-1a4.11,4.11,0,0,0-.9.1l-.09-.59a5.12,5.12,0,0,0,1,.12h1v-.42a13.08,13.08,0,0,0-.07-1.49c2.32.16,2.51.19,2.51.4s-.17.24-.67.42c0,.59,0,.69,0,1.09ZM186.24,390v-2.84h-1.63V390Zm3.53-2.84H188V390h1.77Zm-1.77,3.2v1.8h1.58c.45-.47.45-.47,1.07-1.07l-.35,0c-.43,0-.54-.05-.54-.28v-.47Z"/><path class="cls-3" d="M201.43,393.63a50.33,50.33,0,0,0,5-1.77l.09.17a36.07,36.07,0,0,1-7.46,4.33c-.05.67-.1.87-.28.87a.33.33,0,0,1-.23-.17,6,6,0,0,1-.43-1l-.24-.75c-.09-.28-.17-.52-.26-.78a10.06,10.06,0,0,0,1.89-.35l-.19-9.27a13.58,13.58,0,0,0-.17-2l1.26.1c1.25.09,1.56.16,1.56.4s-.17.28-.71.45Zm.12,4.1a12.2,12.2,0,0,0,6.06-5.51,16.62,16.62,0,0,0,1.37-5.87c.09-.9.14-2.06.14-2.7,0-.31,0-.45,0-.88l1.33.16c1.23.12,1.63.22,1.63.45s-.24.31-.83.47a30,30,0,0,1-.85,6.23,10.72,10.72,0,0,1-1.11,2.65,16.19,16.19,0,0,1,2.39,1.4c.94.66,1.25,1.09,1.25,1.7,0,.83-.64,1.75-1.25,1.75a.38.38,0,0,1-.36-.26,4.73,4.73,0,0,1-.33-1A9.71,9.71,0,0,0,209.1,393a9.45,9.45,0,0,1-3,3,13.72,13.72,0,0,1-4.5,1.87Zm1.33-13.34c2.39,1.16,3.79,2.36,3.79,3.2s-.64,1.77-1.25,1.77c-.28,0-.42-.17-.55-.66a13.33,13.33,0,0,0-2.11-4.21Z"/><path class="cls-3" d="M221.2,394.87l1.46-.29v-9.7c0-1,0-1.66-.1-2.46,2.29.21,2.63.28,2.63.52s-.21.29-.73.45v5h.36c.38-.59.5-.76.92-1.32a12,12,0,0,1,1.25,1.44.23.23,0,0,1,.05.12c0,.07-.07.12-.17.12h-2.41v5.42c1.09-.26,1.75-.45,2.67-.74v-8.38a23.35,23.35,0,0,0-.1-2.63c2.25.22,2.56.29,2.56.54s-.19.28-.71.43v6.17a15,15,0,0,0,3-4.29c1.9,1.33,2.22,1.59,2.22,1.8s-.14.21-.33.21a2.14,2.14,0,0,1-.54-.07,26,26,0,0,1-4.35,2.82v5.28c0,.5,0,.5,1.23.5s1.47-.05,1.68-.36a19.77,19.77,0,0,0,1.25-3.81l.22.05L233,395a.64.64,0,0,0,0,.17c0,.24.05.31.24.38.49.16.69.38.69.78a1,1,0,0,1-.83,1,14.24,14.24,0,0,1-3.17.21,5.49,5.49,0,0,1-2.44-.24c-.31-.17-.42-.45-.42-1.11s0-.62,0-1.71v-.69c-.57.31-1.33.68-2.63,1.28-2.1,1-3.19,1.42-5.3,2.2-.09.59-.16.74-.31.74s-.26-.16-1-2.62a9.85,9.85,0,0,0,1.44-.14v-7.33a15.52,15.52,0,0,0-.1-2.18c2.34.24,2.6.29,2.6.54s-.19.28-.66.42Z"/><path class="cls-3" d="M245.85,385.26v-2a9.45,9.45,0,0,0-.09-1.18c2.58.26,2.65.28,2.65.5s-.09.23-.71.47v2.22h1.09a13.91,13.91,0,0,0,1.21-2.94c2,.75,2.48,1,2.48,1.13s-.24.26-.83.28c-.42.28-.42.28-1.63,1.19-.12.07-.17.12-.5.35H252l1-1c.81.57,1.06.76,1.84,1.39.12.09.17.16.17.24s-.12.24-1,.31c-.78.45-1,.57-2.11,1.16a.27.27,0,0,1,.1.17c0,.12,0,.12-.59.38,0,.43,0,.69,0,.85,0,.35,0,.35,0,1.47,0,.19-.07.24-.28.31a4,4,0,0,1-1,.12c-.5,0-.61-.05-.61-.31V390h-5.37v.33c0,.24-.35.35-1.14.35-.59,0-.75-.07-.75-.29v-.05a23,23,0,0,0,.07-2.3c0-.48,0-1-.07-1.84a17.41,17.41,0,0,1,2.06,1h5c.4-.42.54-.54,1-.93.29.17.69.47,1.25.85a9,9,0,0,0,.61-1.49H241.47a2,2,0,0,1,0,.33,3.42,3.42,0,0,1-.45,1.85,1.53,1.53,0,0,1-1.21.81c-.45,0-.87-.61-.87-1.25,0-.38.16-.59.67-.88a2.68,2.68,0,0,0,1.42-2.27l.16,0c.12.54.16.69.21,1.06h1.75c-.19-.19-.21-.22-.4-.8a4.55,4.55,0,0,0-1.2-2l.12-.14a7.94,7.94,0,0,1,2.35.88,1.08,1.08,0,0,1,.54.94,1.4,1.4,0,0,1-.61,1.09ZM242.65,397v.47c0,.28-.07.35-.29.4a8.07,8.07,0,0,1-1.09.09c-.38,0-.54-.09-.54-.29v-.1c.07-1.37.09-1.85.09-3.38,0-1.84,0-2.62-.07-3.72a15.79,15.79,0,0,1,2,1.09h8.21c.43-.45.57-.59,1-1.06l1.37,1.06c.16.12.21.21.21.31s0,.16-.62.52c0,3.31,0,3.38.09,5.11v.05c0,.16,0,.24-.14.29a3.63,3.63,0,0,1-1.26.14c-.43,0-.5-.05-.52-.36V397Zm3.2-3.07v-2h-3.2v2Zm0,2.7v-2.34h-3.2v2.34Zm-1.71-7h5.37v-2.11h-5.37Zm7,2.27h-3.43v2h3.43Zm-3.43,2.39v2.34h3.43v-2.34Z"/><path class="cls-3" d="M259.68,397.7a17.28,17.28,0,0,0,2.72-2.89,6.43,6.43,0,0,0,1-1.73c2.06.68,2.39.81,2.39,1s-.17.21-.81.26a13.06,13.06,0,0,1-5.2,3.46Zm10.55-12.43H272c.4-.42.54-.55,1-1,.62.4.8.54,1.37.93.16.12.21.19.21.28s-.14.26-.5.45c0,1.94,0,1.94,0,2.91,0,.4-.19.47-1.26.47-.52,0-.61,0-.61-.28v-.29H263v.36c0,.33-.22.4-1.23.4-.55,0-.66-.05-.66-.33.07-2,.07-2.27.07-2.94a18.81,18.81,0,0,0-.09-1.91,13.78,13.78,0,0,1,2.08.9h1.7v-1.82h-3.83a6.23,6.23,0,0,0-1.14.1l-.12-.61a5.4,5.4,0,0,0,1.28.14h11.22l1.33-1.21c.83.55,1.07.73,1.85,1.32a.36.36,0,0,1,.09.16c0,.05-.07.1-.19.1h-5.14Zm-1.59,9.51c0,.52,0,.88,0,1.65a1.36,1.36,0,0,1-.35,1.13,3,3,0,0,1-1.65.61l-.35,0c-.16,0-.21-.05-.22-.29a1.17,1.17,0,0,0-.42-.81,2.71,2.71,0,0,0-.87-.4l-.47-.16-.45-.14,0-.19,2.55.09h.05c.17,0,.23-.05.23-.24v-3.45h-5.56a4.92,4.92,0,0,0-1.11.12l-.12-.62a4.76,4.76,0,0,0,1.23.14h11c.54-.59.71-.76,1.25-1.28a21.42,21.42,0,0,1,1.9,1.4c.07.07.1.1.1.14s-.07.1-.16.1h-6.63Zm-6.6-4.59a5.48,5.48,0,0,0,1.25.12h7.17c.52-.5.68-.66,1.18-1.09.76.5,1,.68,1.73,1.21.07.07.1.1.1.16s-.07.09-.16.09h-10a5.65,5.65,0,0,0-1.13.1Zm1-4.56v2.79h1.87v-2.79Zm3.62-2.18v1.82h1.84v-1.82Zm0,5h1.84v-2.79h-1.84Zm3.08,5a13.55,13.55,0,0,1,3.62,1.3,1.61,1.61,0,0,1,1,1.49c0,.74-.43,1.42-.94,1.42-.19,0-.33-.12-.54-.45a10,10,0,0,0-1.28-1.78,14,14,0,0,0-1.94-1.84Zm.52-5h2v-2.79h-2Z"/><path class="cls-3" d="M285,391.56a17.63,17.63,0,0,1-4.87,4.05l-.12-.16a20.51,20.51,0,0,0,4.33-5.37,21.38,21.38,0,0,0,1.89-4.33h-4.07a4.65,4.65,0,0,0-1.2.12l-.12-.62a5.5,5.5,0,0,0,1.32.14h4.17a13.3,13.3,0,0,0,.62-3.38c2.46.35,2.81.43,2.81.66s-.23.26-.8.38c-.28,1.13-.4,1.52-.66,2.34h2.51c.43-.4.55-.52,1-.9.59.4.76.54,1.32,1,.12.1.17.17.17.26s-.16.24-.69.47c-.05.28-.09.5-.12.66-.16.87-.16.92-.29,1.51h.29c.36-.35.49-.47.85-.78.49.38.64.5,1.11.92.12.1.16.16.16.23s-.17.26-.69.43c-.09.57-.09.57-.38,2h.55c.38-.38.48-.5.87-.85.61.45.78.59,1.33,1,.14.1.19.19.19.26s-.16.24-.64.45a17.49,17.49,0,0,1-.88,4.64c-.33.76-.8,1.06-2.1,1.3a4,4,0,0,1-.5.07c-.17,0-.22-.07-.24-.29-.07-.83-.43-1.14-2-1.68l0-.19c1.44.14,2.13.19,2.58.19s.61-.14.78-.69a20.31,20.31,0,0,0,.57-3.86Zm-2.62-9.35c2.11.47,3,1,3,1.8a1.4,1.4,0,0,1-1.14,1.35.4.4,0,0,1-.26-.12c-.14-.12-.14-.12-.33-.76a6.15,6.15,0,0,0-1.3-2.15ZM284.55,393a5.6,5.6,0,0,1,.29,1.77c0,1.51-.62,2.63-1.46,2.63-.5,0-.9-.55-.9-1.26a1,1,0,0,1,.1-.48,2.17,2.17,0,0,1,.5-.38,3.52,3.52,0,0,0,.83-.9,3.08,3.08,0,0,0,.45-1.37Zm7.19-1.8c.33-1.63.33-1.63.45-2.48h-5.3a14.83,14.83,0,0,1-1.61,2.48Zm-5.7,1.58c1.32,1,1.92,1.85,1.92,2.56s-.64,1.52-1.21,1.52c-.31,0-.42-.28-.42-1.06a9.57,9.57,0,0,0-.42-3Zm2.13-7a21.89,21.89,0,0,1-1.09,2.6h3.34c.26-1.4.26-1.4.43-2.6Zm.05,6.69c1.7.93,2.3,1.49,2.3,2.1s-.52,1.35-1,1.35a.27.27,0,0,1-.21-.1c-.14-.14-.14-.14-.29-.88a9.78,9.78,0,0,0-.92-2.36Zm2.15-.35a7.68,7.68,0,0,1,1.47.5c.71.33,1,.68,1,1.14s-.42,1.23-.8,1.23c-.19,0-.31-.14-.43-.5a6.54,6.54,0,0,0-1.33-2.27Z"/><path class="cls-3" d="M305.38,385.94c.36-.47.48-.61.85-1.06a13.21,13.21,0,0,1,1.23,1.2.35.35,0,0,1,.07.14c0,.05-.07.09-.17.09h-2.22v3.26a21.76,21.76,0,0,0,2.23-.71l.07.17a21.09,21.09,0,0,1-2.3,1.52v1.82c0,.66,0,.66,0,3.91a1.32,1.32,0,0,1-.92,1.49,4.39,4.39,0,0,1-1.23.31c-.14,0-.19-.05-.21-.26-.09-.9-.36-1.16-1.82-1.63l0-.22c.9.05,1.19.07,2,.09h.05c.16,0,.21-.05.21-.23v-4.29l-.59.29-.5.26c0,.57-.12.78-.28.78s-.19,0-.9-2.44a13.38,13.38,0,0,0,2.27-.42V386.3h-1.06a5.12,5.12,0,0,0-1,.1l-.09-.64a3.86,3.86,0,0,0,1.11.17h1.06v-1.51a15.59,15.59,0,0,0-.1-2.23,10.59,10.59,0,0,1,2.48.29c.14.05.21.12.21.21s-.17.26-.76.43v2.81Zm9,2.23,1.11-1.42c.75.61,1,.8,1.65,1.44a.21.21,0,0,1,.1.16c0,.05-.09.1-.22.1l-3.41.1c.28,2.72.83,4.14,2.2,5.7.52-1,.68-1.28,1.35-2.75l.17.05-.5,2.77a4,4,0,0,0,0,.42.89.89,0,0,0,.21.57,1.49,1.49,0,0,1,.36.83.94.94,0,0,1-.9.9c-.81,0-2.08-1.19-3-2.91a12.92,12.92,0,0,1-1.54-5.54l-2.44.07v4.73c1.33-.22,1.87-.33,3.13-.61l.07.21c-1.63.85-3.48,1.71-5.49,2.53-.05.54-.14.73-.31.73s-.35-.45-.87-2.46a11.18,11.18,0,0,0,1.66-.12v-7.2c0-1.11,0-2.2-.07-3a13.47,13.47,0,0,1,2,1,16.84,16.84,0,0,0,5.08-2.48c1.42,1.06,2,1.54,2,1.73s-.1.16-.21.16a2.31,2.31,0,0,1-.78-.16c-1,.28-1.33.36-2.13.54v1.18c0,.87,0,1.89.1,2.72Zm-8,8.63a5.59,5.59,0,0,0,1.33.14h3.64c.52-.61.69-.8,1.23-1.37a21.66,21.66,0,0,1,1.82,1.49c.05.07.09.1.09.14s-.07.1-.19.1h-6.62a5,5,0,0,0-1.18.1Zm5.44-8.56c-.07-1-.09-1.37-.16-3.6-.69.12-1.14.19-2.25.33v3.34Z"/><path class="cls-3" d="M333.27,392c0,3.41,0,3.41.09,5.59a.4.4,0,0,1-.16.38,3.45,3.45,0,0,1-1.18.16c-.5,0-.61-.07-.62-.42.07-1.89.07-2.34.1-5.71h-1.94v.81c0,.19-.05.26-.16.33a2.45,2.45,0,0,1-1.09.16c-.49,0-.62-.07-.62-.38,0-1.21,0-1.21.07-3.43a19.1,19.1,0,0,1-1.94,1.18v4.62c0,.62,0,.62,0,1.18,0,.83-.24,1.21-.94,1.46a4.76,4.76,0,0,1-1.21.22c-.19,0-.24-.07-.26-.31,0-.85-.42-1.19-1.8-1.63l0-.22c1.25.1,1.35.1,2.11.12h.05c.16,0,.21-.07.21-.24v-4.23c-.36.19-.36.19-1.09.54-.09.52-.17.68-.33.68s-.26-.26-.8-2.34a12.17,12.17,0,0,0,2.22-.38v-3.74h-.88a5.24,5.24,0,0,0-1.14.1l-.1-.62a4.56,4.56,0,0,0,1.25.16H324V384.2a17.93,17.93,0,0,0-.09-2.06c2.32.22,2.63.28,2.63.54s-.17.28-.74.48V386h.1l.78-1.19c.47.59.59.76,1,1.33l0,.09c0-2.91,0-2.91-.07-3.9a18.73,18.73,0,0,1,2,1h5.44c.42-.47.54-.61,1-1.06.62.45.81.59,1.4,1.07.16.14.23.22.23.31s-.12.26-.62.57c0,5.4,0,5.4.07,8.4a.52.52,0,0,1-.07.33,2,2,0,0,1-1.2.23c-.54,0-.62,0-.62-.33V392Zm-5.51-3.27v-2.41a.17.17,0,0,1-.16.07h-1.78v3.39c.74-.17,1.06-.26,1.94-.54Zm3.74-5h-1.94v3.71h1.94Zm0,7.66v-3.58h-1.94v3.83h1.94Zm3.83-7.66h-2.06v3.71h2.06Zm0,4.07h-2.06v3.83h2.06Z"/><path class="cls-3" d="M342.51,385.35a6.65,6.65,0,0,0,1.33.17h2.27a15.61,15.61,0,0,1,1.16-1.23c.66.54.87.71,1.54,1.33a.29.29,0,0,1,.09.16c0,.05-.07.1-.16.1h-4.9a5.81,5.81,0,0,0-1.21.1Zm3.26,2.42,1.06-1.2c.68.54.9.71,1.58,1.32a.21.21,0,0,1,.07.16c0,.05-.09.09-.19.09h-4.4a3.17,3.17,0,0,0-.75.09l-.12-.57a4,4,0,0,0,.87.12Zm13.46-.43a2.8,2.8,0,0,0-1,1.59c0,.16-.09.21-.17.21a6.71,6.71,0,0,1-1.84-1.28,10.21,10.21,0,0,1-2.22-2.93c-.14-.28-.21-.43-.49-1.07a13.5,13.5,0,0,1-5.8,5.63l.73.59a.35.35,0,0,1,.12.19c0,.07-.09.1-.21.1H344a3.18,3.18,0,0,0-.87.1l-.12-.59a4.84,4.84,0,0,0,1,.12h1.82c.48-.54.62-.69,1-1.21l.74.57a17.69,17.69,0,0,0,2.56-3,14.17,14.17,0,0,0,1.61-3.08h-1.56a5.53,5.53,0,0,0-.92.07l-.1-.55a3.66,3.66,0,0,0,1,.12h1.51c.4-.43.54-.57,1-1L354.2,383c.14.12.17.16.17.21s-.16.19-.62.29l0,0a6.12,6.12,0,0,0,.57.92,6.8,6.8,0,0,0,1.28-2c1.92.94,1.92.94,1.92,1.06s-.19.21-.55.21h-.19c-1.26.76-1.52.92-2.11,1.21a5.75,5.75,0,0,0,.9.83,9.19,9.19,0,0,0,1.56-1.94c1.78,1,1.78,1,1.78,1.14s-.14.19-.54.19h-.23c-1.51.71-1.78.83-2.08,1a2.76,2.76,0,0,0,.59.35,9.24,9.24,0,0,0,2.58.81Zm-13.56-4.05c.5-.54.66-.69,1.16-1.19.71.54.92.71,1.63,1.32a.29.29,0,0,1,.09.16c0,.05-.07.09-.14.09H344a3.44,3.44,0,0,0-.85.09l-.1-.59a5,5,0,0,0,1,.14Zm.64,9.11a9,9,0,0,1,.92-1c.57.43.75.57,1.3,1,.1.1.14.16.14.22a.32.32,0,0,1-.12.23l-.22.12a.45.45,0,0,0-.17.12c0,3.08,0,3.08,0,4.35v.07a.25.25,0,0,1-.17.26,4.26,4.26,0,0,1-1.07.14c-.38,0-.49-.07-.5-.35v-.64H345v.76c0,.14,0,.19-.07.22a2.14,2.14,0,0,1-1,.17c-.59,0-.74-.05-.74-.24v-.05c.05-1.25.09-2.81.09-4.49,0-.81,0-1.13-.07-1.85.81.38,1.07.5,1.92,1ZM345,396.55h1.44v-3.79H345Zm3.29-12.66c1.71.42,2.23.73,2.23,1.33s-.42,1.06-.8,1.06c-.14,0-.22-.09-.31-.38a4.86,4.86,0,0,0-1.2-1.89Zm7.67,13.16c.62-.76.62-.76,1.18-1.4.8.61,1.06.8,1.84,1.47.1.09.14.14.14.19s-.07.1-.12.1h-9.39a3.84,3.84,0,0,0-1,.1l-.14-.62a4.4,4.4,0,0,0,1.11.16h3.79a12.67,12.67,0,0,0,1.13-3.57l1,.31c.42.12.42.12.92.29s.62.26.62.38-.19.24-.74.33a24.42,24.42,0,0,1-2.34,2.25Zm-4.8-3.69c0,.22,0,.26-.64.33a5.61,5.61,0,0,1,1.61,1c.43.4.52.55.52.93a1.52,1.52,0,0,1-1.16,1.35c-.29,0-.47-.21-.49-.61a4.68,4.68,0,0,0-.78-2.67l.05,0a2.55,2.55,0,0,1-.33,0c-.42,0-.55-.07-.55-.31v-.05c0-.57,0-1.84,0-3.33a12.05,12.05,0,0,0-.05-1.46l1.91.94H355c.38-.42.5-.54.88-.94.59.42.76.55,1.35,1,.14.1.17.16.17.24s-.05.17-.52.43c0,1.68,0,2,.07,2.86a.33.33,0,0,1-.05.23,2,2,0,0,1-1.14.23h-.19c-.33,0-.43-.07-.43-.28V393h-4Zm-.28-5.87a3.49,3.49,0,0,0,.87.1h1.37c.45-.54.61-.69,1-1.21l1.49,1.35a.33.33,0,0,1,.07.14c0,.05-.07.09-.14.09h-3.81a2.71,2.71,0,0,0-.76.09Zm.28,5.16h4v-2.77h-4Z"/><path class="cls-3" d="M366,394.2v.05c0,.38-.24.49-1.21.49-.61,0-.73-.05-.73-.35v-.05c.07-3,.09-3.88.09-7,0-2.15,0-3.34-.09-4.76a16.16,16.16,0,0,1,2,1.09h2l.92-1c.64.45.83.61,1.4,1.06.16.12.21.19.21.28s-.16.26-.61.5c0,7.1,0,7.71.05,9.35a.45.45,0,0,1-.05.26c-.12.16-.5.23-1.16.23s-.66,0-.68-.31V393H366Zm2.2-10.2H366v3.93h2.2Zm-2.2,4.3v4.38h2.2v-4.38Zm7.27,3.26a7.33,7.33,0,0,1-1.54,3.6,10.74,10.74,0,0,1-4,2.93l-.12-.17a9.61,9.61,0,0,0,2.37-2.46,8.72,8.72,0,0,0,1.46-4.54c.1-1.12.14-2.61.14-4.83,0-1.91,0-2.62-.12-3.91a20.53,20.53,0,0,1,2.25,1.07h2.93c.4-.45.54-.59,1-1,.66.47.85.62,1.47,1.07.17.14.24.22.24.31s-.16.29-.62.55v8.11l.05,3.6a3,3,0,0,1-.05.74,1.72,1.72,0,0,1-1.51,1.21,5.57,5.57,0,0,1-1,.14c-.24,0-.24,0-.33-.49a1.46,1.46,0,0,0-.73-1,8.05,8.05,0,0,0-1.78-.57l0-.22c1.56.1,2,.14,3.07.17h.09c.21,0,.26-.07.26-.33v-4Zm.24-4.05c0,1.56-.1,3-.19,3.69h3.46V387.5Zm3.27-.36V383.6h-3.24v1.14c0,.12,0,.59,0,1.2,0,.26,0,.67,0,1.19Z"/><path class="cls-3" d="M384.2,385.31a5.48,5.48,0,0,0,1.2.14H388c.5-.55.66-.73,1.18-1.26.75.57,1,.76,1.68,1.38.07.07.09.1.09.14s-.09.1-.19.1h-5.46a4.06,4.06,0,0,0-1,.1Zm.45,4.49a4.83,4.83,0,0,0,1.07.12h1.89c.45-.54.59-.69,1-1.21.69.54.9.71,1.54,1.26.09.09.12.14.12.19s-.09.12-.23.12h-4.36a5.38,5.38,0,0,0-1,.09Zm3-2.08c.45-.54.59-.69,1-1.21.71.55.92.73,1.59,1.32a.3.3,0,0,1,.09.12.23.23,0,0,1-.05.12,5.84,5.84,0,0,0,1.25.12h2.55v-1.75h-1.78a6.75,6.75,0,0,0-1.06.09l-.12-.57a5.32,5.32,0,0,0,1.18.12h1.78v-1.66h-2.22a4.87,4.87,0,0,0-1.09.1l-.12-.59a5.51,5.51,0,0,0,1.21.12h2.22v-.42A11,11,0,0,0,394,382l1.23.1c1.09.07,1.38.14,1.38.35s-.19.28-.67.43V384h1.52c.45-.55.61-.73,1.07-1.23.73.55.94.73,1.61,1.3.07.09.1.12.1.17s-.09.12-.21.12H396v1.66h1.32c.45-.52.59-.68,1.06-1.16a17.68,17.68,0,0,1,1.47,1.26.29.29,0,0,1,.09.16c0,.05-.09.1-.17.1H396v1.75h1.84l1.13-1.23c.73.55.94.73,1.61,1.3.07.09.1.14.1.19s-.07.1-.16.1h-8.87a4.71,4.71,0,0,0-1.18.12l-.12-.61-.12,0h-4.4a5.59,5.59,0,0,0-1,.09l-.1-.57a6.59,6.59,0,0,0,1.16.12ZM384.77,383a4.2,4.2,0,0,0,1.09.14h1.78c.5-.55.66-.73,1.16-1.26a21.11,21.11,0,0,1,1.63,1.39c.05.07.07.1.07.14s-.07.1-.16.1h-4.49a4.86,4.86,0,0,0-1,.09Zm1.85,14.6c0,.35-.24.43-1.23.43-.43,0-.54-.07-.54-.36.07-1.65.07-2,.07-3.17,0-1.47,0-2.25-.09-3.24a15.68,15.68,0,0,1,1.94,1h1.28a11.42,11.42,0,0,1,.88-.93c.57.42.74.54,1.28,1,.14.12.19.19.19.28s-.14.26-.52.48c0,2.48,0,2.55.07,4.29,0,.4-.24.5-1.23.5-.47,0-.55-.05-.57-.31v-.62h-1.54Zm0-1.07h1.56v-3.91h-1.56Zm6.42-2.3v.92c0,.5,0,.66,0,2.42,0,.38-.23.47-1.18.47-.54,0-.62-.05-.64-.33.05-2,.07-3.07.07-5,0-1.63,0-2.44-.07-3.88l2,1H397c.38-.43.5-.55.9-1a13.86,13.86,0,0,1,1.37,1c.14.12.19.21.19.28s-.12.26-.54.52v3.69c0,.14,0,.55,0,1.18,0,.19,0,.5,0,.88a1.13,1.13,0,0,1-.33,1,2.61,2.61,0,0,1-1.56.61l-.4,0c-.19,0-.22,0-.24-.21a1.3,1.3,0,0,0-.5-1c-.24-.19-.38-.24-1.52-.57l0-.22c1.37.09,1.66.1,2.51.1.16,0,.19,0,.19-.21v-1.75Zm4.14-4H393v1.61h4.14Zm0,2H393v1.68h4.14Z"/><path class="cls-3" d="M417.15,391a11.05,11.05,0,0,1-2,3.33,16.12,16.12,0,0,1,2.89,1.09,1.52,1.52,0,0,1,.8,1.46c0,.64-.26,1.09-.62,1.09-.17,0-.31-.09-.68-.4a21.69,21.69,0,0,0-3.46-2.29c-2.17,1.64-4.54,2.39-8.49,2.67l0-.19a22.12,22.12,0,0,0,4.19-1.37,11.35,11.35,0,0,0,2.86-1.84,13.34,13.34,0,0,0-2.62-.92l-.54.76a.5.5,0,0,1-.43.24,4.52,4.52,0,0,1-1.44-.22.3.3,0,0,1-.14-.24.61.61,0,0,1,.09-.23,30.27,30.27,0,0,0,2-2.94h-3a7.21,7.21,0,0,0-1.07.1l-.14-.61a7.87,7.87,0,0,0,1.32.14h3.07a10.31,10.31,0,0,0,1-2.08l1,.21c1.28.26,1.44.31,1.44.5s-.19.26-.78.35c-.17.29-.19.35-.36.64a2.78,2.78,0,0,1-.21.38h5.75l1.39-1.52c.88.66,1.14.87,2,1.61a.32.32,0,0,1,.07.14.17.17,0,0,1-.17.14Zm-11.22-6.2a50.72,50.72,0,0,0,7.38-1.44,14.51,14.51,0,0,0,3.62-1.42c.64.42.64.42,2,1.33.21.14.28.21.28.33s-.14.22-.31.22a3.21,3.21,0,0,1-.68-.12A48.69,48.69,0,0,1,405.95,385Zm1.11.61c1.94.88,2.84,1.65,2.84,2.41s-.61,1.59-1.14,1.59c-.28,0-.43-.19-.52-.57a7.16,7.16,0,0,0-1.3-3.33Zm4.57,5.59-.8,1.35a10.44,10.44,0,0,1-.64,1c1.11.19,2.44.42,3.12.55A8.18,8.18,0,0,0,415,391Zm-.16-5.87c2,.88,2.75,1.47,2.75,2.2s-.59,1.47-1.11,1.47c-.28,0-.38-.12-.5-.59a7.51,7.51,0,0,0-1.25-3Zm3.53,4.47a14.61,14.61,0,0,0,1.68-3,13.36,13.36,0,0,0,.73-2c2.17.76,2.65,1,2.65,1.2s-.19.24-.85.29a20.5,20.5,0,0,1-4,3.62Z"/><path class="cls-3" d="M434.55,384.46a16.25,16.25,0,0,0,1.13-2.62c2.48.75,2.55.76,2.55,1s-.22.28-.85.31a19.34,19.34,0,0,1-2,1.33h2.75c.52-.59.67-.76,1.21-1.33.81.57,1.06.76,1.82,1.38.07.09.1.14.1.19s-.09.12-.19.12h-6.56v1.59h2.94c.45-.52.61-.66,1.07-1.16.73.5.94.68,1.61,1.21.07.09.1.14.1.17s-.09.14-.19.14h-5.54v1.63h4c.49-.54.64-.71,1.18-1.23a21.88,21.88,0,0,1,1.82,1.32c.07.07.1.12.1.17s-.09.1-.21.1h-6.91v3h1.13a12.35,12.35,0,0,0,1.21-2.7c2.17.68,2.36.76,2.36,1s-.19.24-.57.24h-.21a21.12,21.12,0,0,1-2.06,1.51h2.41c.5-.55.66-.73,1.19-1.28.8.55,1,.73,1.78,1.33.09.09.12.14.12.19s-.09.12-.21.12H427.54a9.59,9.59,0,0,0-1.35.1l-.09-.61a7.54,7.54,0,0,0,1.51.14h2.13c-.17-.16-.22-.26-.33-.75a3.41,3.41,0,0,0-.93-1.82l.1-.14a7,7,0,0,1,2,.81c.42.29.62.57.62.87a1.29,1.29,0,0,1-.69,1h2.18v-3h-5.2a7.07,7.07,0,0,0-1.23.1l-.1-.61a6.14,6.14,0,0,0,1.33.14h5.2v-1.63H429a6.58,6.58,0,0,0-1.21.1l-.1-.59a9.52,9.52,0,0,0,1.32.12h3.67v-1.59H427.9a8,8,0,0,0-1.16.09l-.1-.59a6.54,6.54,0,0,0,1.26.14h3a.93.93,0,0,1-.31-.5,4.76,4.76,0,0,0-1.21-1.87l.1-.14a9.81,9.81,0,0,1,2.29.8,1,1,0,0,1,.64.78,1.14,1.14,0,0,1-.54.93Zm-4.47,13.09c0,.16,0,.24-.12.29a2.58,2.58,0,0,1-1.13.17c-.55,0-.67-.07-.67-.38.05-1.2.07-1.73.07-2.75s0-1.59-.07-2.34a16.52,16.52,0,0,1,2.23.94h6.81c.42-.42.55-.54,1-.94.61.36.8.49,1.37.88.19.12.26.22.26.31s-.14.29-.54.48v1c0,.74,0,1.19.05,2.23a.41.41,0,0,1-.1.33,2.53,2.53,0,0,1-1.18.21c-.57,0-.68-.05-.69-.36V397h-7.27Zm0-.88h7.27v-2.82h-7.27Z"/><path class="cls-3" d="M446.2,390.94a25.47,25.47,0,0,0,2.34-5.13,15.1,15.1,0,0,0,.87-3.69c2.3.54,2.77.69,2.77.92s-.17.26-.76.31a22.44,22.44,0,0,1-2,4.09c1,.17,1.32.28,1.32.48s-.12.21-.57.35v3.9l0,5.18c0,.26-.07.36-.24.43a5.16,5.16,0,0,1-1.25.14c-.38,0-.52-.1-.52-.36v-.07c.09-1.87.14-3.64.14-5.21V389a14.06,14.06,0,0,1-1.92,2Zm11.22-.35h2.18c.54-.62.69-.8,1.23-1.39.81.66,1.06.87,1.8,1.52.05.07.07.1.07.14s-.07.09-.19.09h-5a5.35,5.35,0,0,0,1.47,1.82,8.05,8.05,0,0,0,3.95,1.91l0,.19a1.72,1.72,0,0,0-.81.69,2.54,2.54,0,0,0-.43.87c-.09.24-.12.29-.23.29a1.57,1.57,0,0,1-.71-.42,12.33,12.33,0,0,1-3.34-5v2.53c0,1.06,0,2.18.07,3.53v.07c0,.38-.33.5-1.38.5-.49,0-.61-.09-.61-.4,0-1.18.09-2.75.09-3.29v-1.61a10.73,10.73,0,0,1-2.42,2.49,13.83,13.83,0,0,1-2.75,1.59l-.12-.16a16.24,16.24,0,0,0,3.39-3.74c.43-.66.8-1.28,1.14-1.92h-2.72a6.17,6.17,0,0,0-1.2.1l-.12-.64a6,6,0,0,0,1.32.17h3.5v-2.65h-1.35v.45c0,.17,0,.26-.14.33a2.91,2.91,0,0,1-1.2.17c-.47,0-.57-.07-.57-.36,0-.8.07-3,.07-4.42,0-.43,0-1-.07-1.82.92.4,1.2.54,2.15,1h4.43c.42-.45.55-.59,1-1,.62.43.81.57,1.39,1,.17.14.24.22.24.31s-.12.24-.62.52V385c0,1.18,0,1.92.07,3.24a.34.34,0,0,1-.16.33,2.55,2.55,0,0,1-1.16.19c-.47,0-.59-.05-.61-.31v-.54h-1.63Zm-3.17-3h4.8V383.7h-4.8Z"/><path class="cls-3" d="M479.85,384.55c.57-.66.75-.87,1.35-1.51.85.66,1.11.87,1.94,1.58.07.09.1.14.1.17s-.09.12-.19.12h-8.9a17.58,17.58,0,0,1-2.17,3.43c.17.09.24.16.24.22s-.16.24-.64.38v2.79q0,.31.05,5.82c0,.21-.05.29-.14.36a2.75,2.75,0,0,1-1.09.16c-.71,0-.78,0-.8-.42.05-2.77.05-2.89.05-4.28v-2.53a14.67,14.67,0,0,1-2.49,1.77l-.14-.19a18.39,18.39,0,0,0,2.62-3.15,10.37,10.37,0,0,0-.07-1.58l.92.24a25.06,25.06,0,0,0,1.54-3h-2.94a9.48,9.48,0,0,0-1.58.12l-.1-.64a9,9,0,0,0,1.7.16h3.08a9.16,9.16,0,0,0,.73-2.6c2.55.52,2.84.61,2.84.85s-.23.28-.83.35c-.29.73-.38.92-.61,1.4Zm.61,6.94c.55-.66.73-.87,1.28-1.49a22,22,0,0,1,1.8,1.54c.09.09.12.14.12.19s-.09.12-.23.12h-4.92v2.34c0,.19,0,.23,0,2,0,.74-.14,1.07-.55,1.35a3.84,3.84,0,0,1-2,.54c-.17,0-.21-.05-.22-.31a1.22,1.22,0,0,0-.52-1,5.09,5.09,0,0,0-2.08-.64l0-.22c1.37.07,1.84.09,3.13.09.21,0,.26-.05.26-.33v-3.81h-3a11.28,11.28,0,0,0-1.47.1l-.1-.61a8.23,8.23,0,0,0,1.58.14h3v-.16a12,12,0,0,0-.12-1.91c.73.09,1.06.14,1.52.21a16.59,16.59,0,0,0,1.33-2.06H475a9,9,0,0,0-1.58.1l-.1-.61a8.44,8.44,0,0,0,1.63.14h4.31c.47-.49.62-.64,1.11-1.11.83.61,1.07.8,1.84,1.44.16.14.23.23.23.33s-.21.22-1,.28a19.66,19.66,0,0,1-2.74,1.59c.42.05.54.12.54.28s-.12.21-.66.42v1.06Z"/><path class="cls-4" d="M343,88.27a3.94,3.94,0,0,0-1.6-1,5.43,5.43,0,0,0-1,.95.39.39,0,0,1-.14.14,1.48,1.48,0,0,1-1.05.42q-.77.07-5.48.07h-2.28q-7,0-7.8-.05a7,7,0,0,1-2.25-.69q-1.51-.67-1.58-.53a1,1,0,0,0,0,.39q.28,2.92.28,7.27,0,4.15-.07,5-.14,1.09.21,1.34t1.55-.11q1.09-.42,1.09-.91a.9.9,0,0,1,.53-.84q.25-.14,8.2-.14t8.2.14a.77.77,0,0,1,.39.91q-.21,1.33,2,.46.77-.32.9-.58a3.74,3.74,0,0,0,.05-1.35q-.53-8.5.49-9,.56-.39.56-.53Q344.21,89.27,343,88.27Zm-12.88,8.13q0,1.69-.42,1.93a13.07,13.07,0,0,1-3.2.18h-.35a8.09,8.09,0,0,1-3-.28q-.35-.28-.32-1.55v-.42q0-1.16.35-1.41a8.63,8.63,0,0,1,2.92-.25h.77l1.6,0q.44,0,.9.07t.53.26c0,.14.09.29.14.46a3.08,3.08,0,0,1,.07.77Zm0-4.6q0,1.37-.46,1.62a24.35,24.35,0,0,1-6.39,0q-.46-.28-.46-1.69t.46-1.72a13.94,13.94,0,0,1,3.29-.16,10.92,10.92,0,0,1,3.21.23Q330.19,90.43,330.16,91.8ZM333.21,90a18,18,0,0,1,3.36-.12,13.59,13.59,0,0,1,3.29.19q.46.28.46,1.69t-.46,1.69a14.12,14.12,0,0,1-3.32.19,13.85,13.85,0,0,1-3.32-.16q-.46-.28-.46-1.76T333.21,90Zm6.64,8.36a14.12,14.12,0,0,1-3.32.19,13.85,13.85,0,0,1-3.32-.16q-.49-.28-.46-1.83t.53-1.79a29.18,29.18,0,0,1,6.39,0q.56.25.63,1.74T339.85,98.34Z"/><path class="cls-4" d="M316.66,81.23a2,2,0,0,0,2.41-.53,5,5,0,0,0,1.42-3.16q.11-.95.49-1.16t10.8-.12q10.45.05,10.63.23.42.42-.32,2.39-.35.91.07.88.6,0,3.09-2.11a4.61,4.61,0,0,1,1.51-.91q.81-.14.42-.7a6.22,6.22,0,0,0-1-1.16,5.73,5.73,0,0,0-1.51-1.3q-.32-.07-1.05.7a3.11,3.11,0,0,1-1.07.9,16.28,16.28,0,0,1-2.37.09q-2.5,0-2.67-.28t1.41-1.69q.39-.32,1.09-1t.77-.7a3.14,3.14,0,0,1,1-.74q1-.28-.28-.88l-.95-.42a6.84,6.84,0,0,0-2.28-.74,1.25,1.25,0,0,0-.25.56,19.92,19.92,0,0,1-1.21,3.36A8,8,0,0,1,335.57,75a2.47,2.47,0,0,1-1.11.23,2.86,2.86,0,0,1-1.18-.09q-.53-.28-.49-2.35t.56-2.49q.63-.49-.49-.95a14.72,14.72,0,0,0-1.86-.56q-1.19-.32-1.26-.18a.7.7,0,0,0,0,.32A40.74,40.74,0,0,1,330,73a4.7,4.7,0,0,1-.18,2q-.21.3-1.55.3a3.32,3.32,0,0,1-1.42-.18q-.26-.18,0-.84a2.5,2.5,0,0,0-.69-2.62,7.15,7.15,0,0,0-3.36-2.09q-1.12-.35-1.12-.14a1.85,1.85,0,0,0,.42.67,10.09,10.09,0,0,1,2.35,4.22q.18.7-.11.84a6.09,6.09,0,0,1-1.79.14,5.43,5.43,0,0,1-1.86-.18q-.32-.18-.56-1.05a3.71,3.71,0,0,0-.21-.61.21.21,0,0,0-.25-.09q-.18,0-.25.77A5.77,5.77,0,0,1,317,78.42,2.14,2.14,0,0,0,316,79.95,1.15,1.15,0,0,0,316.66,81.23Z"/><path class="cls-4" d="M340.77,80.42q.6-.25.46-.65a4,4,0,0,0-1.16-1.25,4.47,4.47,0,0,0-1.39-.93q-.33-.05-.86.58A5.2,5.2,0,0,1,337,79a14.94,14.94,0,0,1-3.83.25h-1.83q-4.32,0-5-.07a7.68,7.68,0,0,1-2.09-.67q-1.34-.56-1.41-.42s0,.25,0,.6q.07.77.11,3.37t0,3.62q-.07,1.41.21,1.58a2.37,2.37,0,0,0,1.48-.18q1-.35,1.09-.74.11-.56.35-.67a39.24,39.24,0,0,1,5.48-.18h.6q3.9,0,4.55.11a.68.68,0,0,1,.65.74v.11q0,.77,1.65.25a2.21,2.21,0,0,0,1.07-.53,2.77,2.77,0,0,0,.09-1.3,20.74,20.74,0,0,1,0-3.36A1.22,1.22,0,0,1,340.77,80.42Zm-3.94,3.9a100.23,100.23,0,0,1-10.61,0q-.56-.28-.56-2t.56-2a41,41,0,0,1,5.22-.16,43.67,43.67,0,0,1,5.32.12q.6.21.63,1.95T336.83,84.32Z"/><path class="cls-4" d="M370.61,77.64a39.47,39.47,0,0,0-5.79-14.27,39.8,39.8,0,0,0-17.27-14.6,39.49,39.49,0,0,0-7.42-2.41,40.06,40.06,0,0,0-16-.2A39.47,39.47,0,0,0,309.87,52a39.8,39.8,0,0,0-14.6,17.27,39.49,39.49,0,0,0-2.41,7.42,40.06,40.06,0,0,0-.2,16,39.47,39.47,0,0,0,5.79,14.27,39.8,39.8,0,0,0,17.27,14.6,39.49,39.49,0,0,0,7.42,2.41,40,40,0,0,0,8,.91h.51a40,40,0,0,0,7.5-.71,39.47,39.47,0,0,0,14.27-5.79A39.8,39.8,0,0,0,368,101a39.49,39.49,0,0,0,2.41-7.42,40.06,40.06,0,0,0,.2-16ZM358.23,59.22a37.43,37.43,0,0,1,3.34,3.94h-6.15V56.62A37.39,37.39,0,0,1,358.23,59.22Zm-47-5.13A37,37,0,0,1,331.63,48h.48a37.41,37.41,0,0,1,7.47.85,36.92,36.92,0,0,1,13.2,5.75q.76.52,1.49,1.09v7.46H309V55.7Q310.1,54.85,311.27,54.09Zm43,10.22v41.62H309V64.3Zm-48.56-5.75q1-1,2.14-1.93v6.54h-6.15A37.43,37.43,0,0,1,305.72,58.55Zm-4.82,5.75h7v41.62h-7l-.28-.42a37.17,37.17,0,0,1-2.08-3.58V68.35A37.19,37.19,0,0,1,300.89,64.3Zm-5.73,27.86a37.51,37.51,0,0,1,.19-15,37,37,0,0,1,2-6.37V99.45l-.12-.29A36.94,36.94,0,0,1,295.17,92.16Zm9.88,18.9a37.43,37.43,0,0,1-3.38-4h6.18v6.59A37.39,37.39,0,0,1,305,111.06Zm47,5.13a37.08,37.08,0,0,1-41.52-.53q-.76-.53-1.49-1.09v-7.51h45.28v7.51Q353.17,115.43,352,116.19Zm5.55-4.47q-1,1-2.14,1.93v-6.59h6.19A37.43,37.43,0,0,1,357.56,111.73Zm4.85-5.8h-7V64.3h7l.31.47a37.16,37.16,0,0,1,2,3.41V102.1A37.2,37.2,0,0,1,362.41,105.92Zm6.35-20.31a37.41,37.41,0,0,1-.85,7.47,37,37,0,0,1-2.09,6.57v-29l.21.5a36.94,36.94,0,0,1,2.07,7A37.41,37.41,0,0,1,368.77,85.61Z"/><path class="cls-4" d="M254.44,74.08q1.39-1.67,1.84-1.67t1.45.91q1,.94,1,1.36t-1,.68q-.8.23-.79.45v.34A20.52,20.52,0,0,0,260.29,87a17.13,17.13,0,0,0,8.4,7.32l-.14.65a2.43,2.43,0,0,0-1.76,1.56q-.4.85-.74.85-1.11,0-3.86-3.29a22.63,22.63,0,0,1-4-7.06,20.06,20.06,0,0,1-1.28-5,19.57,19.57,0,0,1-5.11,9.19,27.5,27.5,0,0,1-9.1,6.67l-.23-.48A31.15,31.15,0,0,0,252,86q3.06-6.41,3.09-11.12h-3.6a15.11,15.11,0,0,0-3.52.28l-.62-1.5a25.59,25.59,0,0,0,5,.4Z"/><path class="cls-4" d="M398.77,95a2.49,2.49,0,0,1-1.16,2.38,4,4,0,0,1-1.87.68q-.31,0-.42-.37a2.71,2.71,0,0,0-1.11-1.62,8.89,8.89,0,0,0-1.53-.6l.08-.54,1.45.08.77,0q1.19,0,1.19-.65V87.7a12.64,12.64,0,0,1-1.64.68q-.09,0-.26.94a.4.4,0,0,1-.43.4q-.37,0-1.56-3.72a27.81,27.81,0,0,0,3.89-.45V79.33l-1.53,0-.23,0a6.7,6.7,0,0,0-1.59.23l-.51-1.28a15.58,15.58,0,0,0,3.86.31V76.07a34.34,34.34,0,0,0-.23-4.34q4.11.6,4.11,1a.36.36,0,0,1-.23.34q-1.05.48-1,.65v4.94H399q1.08-1.84,1.39-1.84t1.16,1q.88,1,.88,1.22a.25.25,0,0,1-.28.28h-3.38V85a18.89,18.89,0,0,0,3.35-1.16l.17.4a21,21,0,0,1-3.52,2.33Zm15.77-21q1.36-1.5,1.73-1.5a4,4,0,0,1,1.39.88q1.11.91,1.11,1.19a.43.43,0,0,1-.2.37,5.21,5.21,0,0,0-1,.82v6.72q0,.91.11,6.58,0,.85-2,.85-.71,0-.71-.48l0-1.28h-3.52v4.77q0,.42.11,4.59,0,.77-2.1.77-.77,0-.77-.51.11-4.11.11-5.33V88.15h-3.21v1.42q0,.91-2.13.91-.62,0-.62-.6.14-4.94.14-7.35V78.67q0-1.56-.08-4.2a20.47,20.47,0,0,0-.14-2.07A28,28,0,0,1,405.8,74Zm-9,.71v5.79h3.21V74.7Zm0,12.76h3.21V81.2h-3.21Zm9.36-12.76h-3.52v5.79h3.52Zm0,12.76V81.2h-3.52v6.27Z"/></g></g></svg>